<svg xmlns="http://www.w3.org/2000/svg" xmlns:xlink="http://www.w3.org/1999/xlink" width="1080" zoomAndPan="magnify" viewBox="0 0 810 809.999993" height="1080" preserveAspectRatio="xMidYMid meet" version="1.0"><defs><clipPath id="03603bc452"><path d="M 109.316406 752 L 113 752 L 113 755.589844 L 109.316406 755.589844 Z M 109.316406 752 " clip-rule="nonzero"/></clipPath><clipPath id="2f7cd27618"><path d="M 143 752 L 147 752 L 147 755.589844 L 143 755.589844 Z M 143 752 " clip-rule="nonzero"/></clipPath><clipPath id="8ab8c77eb5"><path d="M 176 752 L 181 752 L 181 755.589844 L 176 755.589844 Z M 176 752 " clip-rule="nonzero"/></clipPath><clipPath id="cf0966d015"><path d="M 210 752 L 214 752 L 214 755.589844 L 210 755.589844 Z M 210 752 " clip-rule="nonzero"/></clipPath><clipPath id="2b268bb6d9"><path d="M 244 752 L 248 752 L 248 755.589844 L 244 755.589844 Z M 244 752 " clip-rule="nonzero"/></clipPath><clipPath id="d0c1dd0b18"><path d="M 278 752 L 282 752 L 282 755.589844 L 278 755.589844 Z M 278 752 " clip-rule="nonzero"/></clipPath><clipPath id="f12672b120"><path d="M 311 752 L 316 752 L 316 755.589844 L 311 755.589844 Z M 311 752 " clip-rule="nonzero"/></clipPath><clipPath id="9085cbe7b6"><path d="M 345 752 L 349 752 L 349 755.589844 L 345 755.589844 Z M 345 752 " clip-rule="nonzero"/></clipPath><clipPath id="dc1ecc1ce6"><path d="M 379 752 L 383 752 L 383 755.589844 L 379 755.589844 Z M 379 752 " clip-rule="nonzero"/></clipPath><clipPath id="50679f4bb3"><path d="M 413 752 L 417 752 L 417 755.589844 L 413 755.589844 Z M 413 752 " clip-rule="nonzero"/></clipPath><clipPath id="cd97b86d86"><path d="M 429 735 L 433.316406 735 L 433.316406 739 L 429 739 Z M 429 735 " clip-rule="nonzero"/></clipPath><clipPath id="60bbb3c973"><path d="M 109.316406 718 L 113 718 L 113 722 L 109.316406 722 Z M 109.316406 718 " clip-rule="nonzero"/></clipPath><clipPath id="18f6e62c0d"><path d="M 429 701 L 433.316406 701 L 433.316406 705 L 429 705 Z M 429 701 " clip-rule="nonzero"/></clipPath><clipPath id="1d08531f83"><path d="M 109.316406 684 L 113 684 L 113 689 L 109.316406 689 Z M 109.316406 684 " clip-rule="nonzero"/></clipPath><clipPath id="4f7a61d884"><path d="M 429 667 L 433.316406 667 L 433.316406 672 L 429 672 Z M 429 667 " clip-rule="nonzero"/></clipPath><clipPath id="4fc79f00c8"><path d="M 109.316406 650 L 113 650 L 113 655 L 109.316406 655 Z M 109.316406 650 " clip-rule="nonzero"/></clipPath><clipPath id="333f62d0e9"><path d="M 429 634 L 433.316406 634 L 433.316406 638 L 429 638 Z M 429 634 " clip-rule="nonzero"/></clipPath><clipPath id="16b8d2f269"><path d="M 109.316406 617 L 113 617 L 113 621 L 109.316406 621 Z M 109.316406 617 " clip-rule="nonzero"/></clipPath><clipPath id="00ac2811c2"><path d="M 429 600 L 433.316406 600 L 433.316406 604 L 429 604 Z M 429 600 " clip-rule="nonzero"/></clipPath><clipPath id="9b1e222b4d"><path d="M 109.316406 583 L 113 583 L 113 587 L 109.316406 587 Z M 109.316406 583 " clip-rule="nonzero"/></clipPath><clipPath id="ce9e9e2b37"><path d="M 429 566 L 433.316406 566 L 433.316406 570 L 429 570 Z M 429 566 " clip-rule="nonzero"/></clipPath><clipPath id="c19f749171"><path d="M 109.316406 549 L 113 549 L 113 554 L 109.316406 554 Z M 109.316406 549 " clip-rule="nonzero"/></clipPath><clipPath id="21f7adbc8a"><path d="M 429 532 L 433.316406 532 L 433.316406 537 L 429 537 Z M 429 532 " clip-rule="nonzero"/></clipPath><clipPath id="89d0c52150"><path d="M 109.316406 515 L 113 515 L 113 520 L 109.316406 520 Z M 109.316406 515 " clip-rule="nonzero"/></clipPath><clipPath id="4d71c2bb07"><path d="M 429 499 L 433.316406 499 L 433.316406 503 L 429 503 Z M 429 499 " clip-rule="nonzero"/></clipPath><clipPath id="9b09e31799"><path d="M 109.316406 482 L 113 482 L 113 486 L 109.316406 486 Z M 109.316406 482 " clip-rule="nonzero"/></clipPath><clipPath id="aa9fbad286"><path d="M 429 465 L 433.316406 465 L 433.316406 469 L 429 469 Z M 429 465 " clip-rule="nonzero"/></clipPath><clipPath id="007c8467e9"><path d="M 109.316406 448 L 113 448 L 113 452 L 109.316406 452 Z M 109.316406 448 " clip-rule="nonzero"/></clipPath><clipPath id="cb2974d3ae"><path d="M 126 431.589844 L 130 431.589844 L 130 435 L 126 435 Z M 126 431.589844 " clip-rule="nonzero"/></clipPath><clipPath id="786b263e0e"><path d="M 159 431.589844 L 164 431.589844 L 164 435 L 159 435 Z M 159 431.589844 " clip-rule="nonzero"/></clipPath><clipPath id="23de94820c"><path d="M 193 431.589844 L 198 431.589844 L 198 435 L 193 435 Z M 193 431.589844 " clip-rule="nonzero"/></clipPath><clipPath id="5559867f43"><path d="M 227 431.589844 L 231 431.589844 L 231 435 L 227 435 Z M 227 431.589844 " clip-rule="nonzero"/></clipPath><clipPath id="193bf15b5c"><path d="M 261 431.589844 L 265 431.589844 L 265 435 L 261 435 Z M 261 431.589844 " clip-rule="nonzero"/></clipPath><clipPath id="26154c427c"><path d="M 294 431.589844 L 299 431.589844 L 299 435 L 294 435 Z M 294 431.589844 " clip-rule="nonzero"/></clipPath><clipPath id="9b26c9176b"><path d="M 328 431.589844 L 333 431.589844 L 333 435 L 328 435 Z M 328 431.589844 " clip-rule="nonzero"/></clipPath><clipPath id="da9ef94930"><path d="M 362 431.589844 L 366 431.589844 L 366 435 L 362 435 Z M 362 431.589844 " clip-rule="nonzero"/></clipPath><clipPath id="1d71535195"><path d="M 396 431.589844 L 400 431.589844 L 400 435 L 396 435 Z M 396 431.589844 " clip-rule="nonzero"/></clipPath><clipPath id="e196468241"><path d="M 429 431.589844 L 433.316406 431.589844 L 433.316406 435 L 429 435 Z M 429 431.589844 " clip-rule="nonzero"/></clipPath><clipPath id="518f458ecc"><path d="M 283.5 283.5 L 526.5 283.5 L 526.5 526.5 L 283.5 526.5 Z M 283.5 283.5 " clip-rule="nonzero"/></clipPath></defs><g clip-path="url(#03603bc452)"><path fill="#ffffff" d="M 112.691406 753.902344 C 112.691406 752.96875 111.933594 752.214844 111.003906 752.214844 C 110.070312 752.214844 109.316406 752.96875 109.316406 753.902344 C 109.316406 754.832031 110.070312 755.589844 111.003906 755.589844 C 111.933594 755.589844 112.691406 754.832031 112.691406 753.902344 " fill-opacity="1" fill-rule="nonzero"/></g><g clip-path="url(#2f7cd27618)"><path fill="#ffffff" d="M 146.441406 753.902344 C 146.441406 752.96875 145.683594 752.214844 144.753906 752.214844 C 143.820312 752.214844 143.066406 752.96875 143.066406 753.902344 C 143.066406 754.832031 143.820312 755.589844 144.753906 755.589844 C 145.683594 755.589844 146.441406 754.832031 146.441406 753.902344 " fill-opacity="1" fill-rule="nonzero"/></g><g clip-path="url(#8ab8c77eb5)"><path fill="#ffffff" d="M 180.191406 753.902344 C 180.191406 752.96875 179.433594 752.214844 178.503906 752.214844 C 177.570312 752.214844 176.816406 752.96875 176.816406 753.902344 C 176.816406 754.832031 177.570312 755.589844 178.503906 755.589844 C 179.433594 755.589844 180.191406 754.832031 180.191406 753.902344 " fill-opacity="1" fill-rule="nonzero"/></g><g clip-path="url(#cf0966d015)"><path fill="#ffffff" d="M 213.941406 753.902344 C 213.941406 752.96875 213.183594 752.214844 212.253906 752.214844 C 211.320312 752.214844 210.566406 752.96875 210.566406 753.902344 C 210.566406 754.832031 211.320312 755.589844 212.253906 755.589844 C 213.183594 755.589844 213.941406 754.832031 213.941406 753.902344 " fill-opacity="1" fill-rule="nonzero"/></g><g clip-path="url(#2b268bb6d9)"><path fill="#ffffff" d="M 247.691406 753.902344 C 247.691406 752.96875 246.933594 752.214844 246.003906 752.214844 C 245.070312 752.214844 244.316406 752.96875 244.316406 753.902344 C 244.316406 754.832031 245.070312 755.589844 246.003906 755.589844 C 246.933594 755.589844 247.691406 754.832031 247.691406 753.902344 " fill-opacity="1" fill-rule="nonzero"/></g><g clip-path="url(#d0c1dd0b18)"><path fill="#ffffff" d="M 281.441406 753.902344 C 281.441406 752.96875 280.683594 752.214844 279.753906 752.214844 C 278.820312 752.214844 278.066406 752.96875 278.066406 753.902344 C 278.066406 754.832031 278.820312 755.589844 279.753906 755.589844 C 280.683594 755.589844 281.441406 754.832031 281.441406 753.902344 " fill-opacity="1" fill-rule="nonzero"/></g><g clip-path="url(#f12672b120)"><path fill="#ffffff" d="M 315.191406 753.902344 C 315.191406 752.96875 314.433594 752.214844 313.503906 752.214844 C 312.570312 752.214844 311.816406 752.96875 311.816406 753.902344 C 311.816406 754.832031 312.570312 755.589844 313.503906 755.589844 C 314.433594 755.589844 315.191406 754.832031 315.191406 753.902344 " fill-opacity="1" fill-rule="nonzero"/></g><g clip-path="url(#9085cbe7b6)"><path fill="#ffffff" d="M 348.941406 753.902344 C 348.941406 752.96875 348.183594 752.214844 347.253906 752.214844 C 346.320312 752.214844 345.566406 752.96875 345.566406 753.902344 C 345.566406 754.832031 346.320312 755.589844 347.253906 755.589844 C 348.183594 755.589844 348.941406 754.832031 348.941406 753.902344 " fill-opacity="1" fill-rule="nonzero"/></g><g clip-path="url(#dc1ecc1ce6)"><path fill="#ffffff" d="M 382.691406 753.902344 C 382.691406 752.96875 381.933594 752.214844 381.003906 752.214844 C 380.070312 752.214844 379.316406 752.96875 379.316406 753.902344 C 379.316406 754.832031 380.070312 755.589844 381.003906 755.589844 C 381.933594 755.589844 382.691406 754.832031 382.691406 753.902344 " fill-opacity="1" fill-rule="nonzero"/></g><g clip-path="url(#50679f4bb3)"><path fill="#ffffff" d="M 416.441406 753.902344 C 416.441406 752.96875 415.683594 752.214844 414.753906 752.214844 C 413.820312 752.214844 413.066406 752.96875 413.066406 753.902344 C 413.066406 754.832031 413.820312 755.589844 414.753906 755.589844 C 415.683594 755.589844 416.441406 754.832031 416.441406 753.902344 " fill-opacity="1" fill-rule="nonzero"/></g><path fill="#ffffff" d="M 129.566406 737.027344 C 129.566406 736.09375 128.808594 735.339844 127.878906 735.339844 C 126.945312 735.339844 126.191406 736.09375 126.191406 737.027344 C 126.191406 737.957031 126.945312 738.714844 127.878906 738.714844 C 128.808594 738.714844 129.566406 737.957031 129.566406 737.027344 " fill-opacity="1" fill-rule="nonzero"/><path fill="#ffffff" d="M 163.316406 737.027344 C 163.316406 736.09375 162.558594 735.339844 161.628906 735.339844 C 160.695312 735.339844 159.941406 736.09375 159.941406 737.027344 C 159.941406 737.957031 160.695312 738.714844 161.628906 738.714844 C 162.558594 738.714844 163.316406 737.957031 163.316406 737.027344 " fill-opacity="1" fill-rule="nonzero"/><path fill="#ffffff" d="M 197.066406 737.027344 C 197.066406 736.09375 196.308594 735.339844 195.378906 735.339844 C 194.445312 735.339844 193.691406 736.09375 193.691406 737.027344 C 193.691406 737.957031 194.445312 738.714844 195.378906 738.714844 C 196.308594 738.714844 197.066406 737.957031 197.066406 737.027344 " fill-opacity="1" fill-rule="nonzero"/><path fill="#ffffff" d="M 230.816406 737.027344 C 230.816406 736.09375 230.058594 735.339844 229.128906 735.339844 C 228.195312 735.339844 227.441406 736.09375 227.441406 737.027344 C 227.441406 737.957031 228.195312 738.714844 229.128906 738.714844 C 230.058594 738.714844 230.816406 737.957031 230.816406 737.027344 " fill-opacity="1" fill-rule="nonzero"/><path fill="#ffffff" d="M 264.566406 737.027344 C 264.566406 736.09375 263.808594 735.339844 262.878906 735.339844 C 261.945312 735.339844 261.191406 736.09375 261.191406 737.027344 C 261.191406 737.957031 261.945312 738.714844 262.878906 738.714844 C 263.808594 738.714844 264.566406 737.957031 264.566406 737.027344 " fill-opacity="1" fill-rule="nonzero"/><path fill="#ffffff" d="M 298.316406 737.027344 C 298.316406 736.09375 297.558594 735.339844 296.628906 735.339844 C 295.695312 735.339844 294.941406 736.09375 294.941406 737.027344 C 294.941406 737.957031 295.695312 738.714844 296.628906 738.714844 C 297.558594 738.714844 298.316406 737.957031 298.316406 737.027344 " fill-opacity="1" fill-rule="nonzero"/><path fill="#ffffff" d="M 332.066406 737.027344 C 332.066406 736.09375 331.308594 735.339844 330.378906 735.339844 C 329.445312 735.339844 328.691406 736.09375 328.691406 737.027344 C 328.691406 737.957031 329.445312 738.714844 330.378906 738.714844 C 331.308594 738.714844 332.066406 737.957031 332.066406 737.027344 " fill-opacity="1" fill-rule="nonzero"/><path fill="#ffffff" d="M 365.816406 737.027344 C 365.816406 736.09375 365.058594 735.339844 364.128906 735.339844 C 363.195312 735.339844 362.441406 736.09375 362.441406 737.027344 C 362.441406 737.957031 363.195312 738.714844 364.128906 738.714844 C 365.058594 738.714844 365.816406 737.957031 365.816406 737.027344 " fill-opacity="1" fill-rule="nonzero"/><path fill="#ffffff" d="M 399.566406 737.027344 C 399.566406 736.09375 398.808594 735.339844 397.878906 735.339844 C 396.945312 735.339844 396.191406 736.09375 396.191406 737.027344 C 396.191406 737.957031 396.945312 738.714844 397.878906 738.714844 C 398.808594 738.714844 399.566406 737.957031 399.566406 737.027344 " fill-opacity="1" fill-rule="nonzero"/><g clip-path="url(#cd97b86d86)"><path fill="#ffffff" d="M 433.316406 737.027344 C 433.316406 736.09375 432.558594 735.339844 431.628906 735.339844 C 430.695312 735.339844 429.941406 736.09375 429.941406 737.027344 C 429.941406 737.957031 430.695312 738.714844 431.628906 738.714844 C 432.558594 738.714844 433.316406 737.957031 433.316406 737.027344 " fill-opacity="1" fill-rule="nonzero"/></g><g clip-path="url(#60bbb3c973)"><path fill="#ffffff" d="M 112.691406 720.152344 C 112.691406 719.21875 111.933594 718.464844 111.003906 718.464844 C 110.070312 718.464844 109.316406 719.21875 109.316406 720.152344 C 109.316406 721.082031 110.070312 721.839844 111.003906 721.839844 C 111.933594 721.839844 112.691406 721.082031 112.691406 720.152344 " fill-opacity="1" fill-rule="nonzero"/></g><path fill="#ffffff" d="M 146.441406 720.152344 C 146.441406 719.21875 145.683594 718.464844 144.753906 718.464844 C 143.820312 718.464844 143.066406 719.21875 143.066406 720.152344 C 143.066406 721.082031 143.820312 721.839844 144.753906 721.839844 C 145.683594 721.839844 146.441406 721.082031 146.441406 720.152344 " fill-opacity="1" fill-rule="nonzero"/><path fill="#ffffff" d="M 180.191406 720.152344 C 180.191406 719.21875 179.433594 718.464844 178.503906 718.464844 C 177.570312 718.464844 176.816406 719.21875 176.816406 720.152344 C 176.816406 721.082031 177.570312 721.839844 178.503906 721.839844 C 179.433594 721.839844 180.191406 721.082031 180.191406 720.152344 " fill-opacity="1" fill-rule="nonzero"/><path fill="#ffffff" d="M 213.941406 720.152344 C 213.941406 719.21875 213.183594 718.464844 212.253906 718.464844 C 211.320312 718.464844 210.566406 719.21875 210.566406 720.152344 C 210.566406 721.082031 211.320312 721.839844 212.253906 721.839844 C 213.183594 721.839844 213.941406 721.082031 213.941406 720.152344 " fill-opacity="1" fill-rule="nonzero"/><path fill="#ffffff" d="M 247.691406 720.152344 C 247.691406 719.21875 246.933594 718.464844 246.003906 718.464844 C 245.070312 718.464844 244.316406 719.21875 244.316406 720.152344 C 244.316406 721.082031 245.070312 721.839844 246.003906 721.839844 C 246.933594 721.839844 247.691406 721.082031 247.691406 720.152344 " fill-opacity="1" fill-rule="nonzero"/><path fill="#ffffff" d="M 281.441406 720.152344 C 281.441406 719.21875 280.683594 718.464844 279.753906 718.464844 C 278.820312 718.464844 278.066406 719.21875 278.066406 720.152344 C 278.066406 721.082031 278.820312 721.839844 279.753906 721.839844 C 280.683594 721.839844 281.441406 721.082031 281.441406 720.152344 " fill-opacity="1" fill-rule="nonzero"/><path fill="#ffffff" d="M 315.191406 720.152344 C 315.191406 719.21875 314.433594 718.464844 313.503906 718.464844 C 312.570312 718.464844 311.816406 719.21875 311.816406 720.152344 C 311.816406 721.082031 312.570312 721.839844 313.503906 721.839844 C 314.433594 721.839844 315.191406 721.082031 315.191406 720.152344 " fill-opacity="1" fill-rule="nonzero"/><path fill="#ffffff" d="M 348.941406 720.152344 C 348.941406 719.21875 348.183594 718.464844 347.253906 718.464844 C 346.320312 718.464844 345.566406 719.21875 345.566406 720.152344 C 345.566406 721.082031 346.320312 721.839844 347.253906 721.839844 C 348.183594 721.839844 348.941406 721.082031 348.941406 720.152344 " fill-opacity="1" fill-rule="nonzero"/><path fill="#ffffff" d="M 382.691406 720.152344 C 382.691406 719.21875 381.933594 718.464844 381.003906 718.464844 C 380.070312 718.464844 379.316406 719.21875 379.316406 720.152344 C 379.316406 721.082031 380.070312 721.839844 381.003906 721.839844 C 381.933594 721.839844 382.691406 721.082031 382.691406 720.152344 " fill-opacity="1" fill-rule="nonzero"/><path fill="#ffffff" d="M 416.441406 720.152344 C 416.441406 719.21875 415.683594 718.464844 414.753906 718.464844 C 413.820312 718.464844 413.066406 719.21875 413.066406 720.152344 C 413.066406 721.082031 413.820312 721.839844 414.753906 721.839844 C 415.683594 721.839844 416.441406 721.082031 416.441406 720.152344 " fill-opacity="1" fill-rule="nonzero"/><path fill="#ffffff" d="M 129.566406 703.277344 C 129.566406 702.34375 128.808594 701.589844 127.878906 701.589844 C 126.945312 701.589844 126.191406 702.34375 126.191406 703.277344 C 126.191406 704.207031 126.945312 704.964844 127.878906 704.964844 C 128.808594 704.964844 129.566406 704.207031 129.566406 703.277344 " fill-opacity="1" fill-rule="nonzero"/><path fill="#ffffff" d="M 163.316406 703.277344 C 163.316406 702.34375 162.558594 701.589844 161.628906 701.589844 C 160.695312 701.589844 159.941406 702.34375 159.941406 703.277344 C 159.941406 704.207031 160.695312 704.964844 161.628906 704.964844 C 162.558594 704.964844 163.316406 704.207031 163.316406 703.277344 " fill-opacity="1" fill-rule="nonzero"/><path fill="#ffffff" d="M 197.066406 703.277344 C 197.066406 702.34375 196.308594 701.589844 195.378906 701.589844 C 194.445312 701.589844 193.691406 702.34375 193.691406 703.277344 C 193.691406 704.207031 194.445312 704.964844 195.378906 704.964844 C 196.308594 704.964844 197.066406 704.207031 197.066406 703.277344 " fill-opacity="1" fill-rule="nonzero"/><path fill="#ffffff" d="M 230.816406 703.277344 C 230.816406 702.34375 230.058594 701.589844 229.128906 701.589844 C 228.195312 701.589844 227.441406 702.34375 227.441406 703.277344 C 227.441406 704.207031 228.195312 704.964844 229.128906 704.964844 C 230.058594 704.964844 230.816406 704.207031 230.816406 703.277344 " fill-opacity="1" fill-rule="nonzero"/><path fill="#ffffff" d="M 264.566406 703.277344 C 264.566406 702.34375 263.808594 701.589844 262.878906 701.589844 C 261.945312 701.589844 261.191406 702.34375 261.191406 703.277344 C 261.191406 704.207031 261.945312 704.964844 262.878906 704.964844 C 263.808594 704.964844 264.566406 704.207031 264.566406 703.277344 " fill-opacity="1" fill-rule="nonzero"/><path fill="#ffffff" d="M 298.316406 703.277344 C 298.316406 702.34375 297.558594 701.589844 296.628906 701.589844 C 295.695312 701.589844 294.941406 702.34375 294.941406 703.277344 C 294.941406 704.207031 295.695312 704.964844 296.628906 704.964844 C 297.558594 704.964844 298.316406 704.207031 298.316406 703.277344 " fill-opacity="1" fill-rule="nonzero"/><path fill="#ffffff" d="M 332.066406 703.277344 C 332.066406 702.34375 331.308594 701.589844 330.378906 701.589844 C 329.445312 701.589844 328.691406 702.34375 328.691406 703.277344 C 328.691406 704.207031 329.445312 704.964844 330.378906 704.964844 C 331.308594 704.964844 332.066406 704.207031 332.066406 703.277344 " fill-opacity="1" fill-rule="nonzero"/><path fill="#ffffff" d="M 365.816406 703.277344 C 365.816406 702.34375 365.058594 701.589844 364.128906 701.589844 C 363.195312 701.589844 362.441406 702.34375 362.441406 703.277344 C 362.441406 704.207031 363.195312 704.964844 364.128906 704.964844 C 365.058594 704.964844 365.816406 704.207031 365.816406 703.277344 " fill-opacity="1" fill-rule="nonzero"/><path fill="#ffffff" d="M 399.566406 703.277344 C 399.566406 702.34375 398.808594 701.589844 397.878906 701.589844 C 396.945312 701.589844 396.191406 702.34375 396.191406 703.277344 C 396.191406 704.207031 396.945312 704.964844 397.878906 704.964844 C 398.808594 704.964844 399.566406 704.207031 399.566406 703.277344 " fill-opacity="1" fill-rule="nonzero"/><g clip-path="url(#18f6e62c0d)"><path fill="#ffffff" d="M 433.316406 703.277344 C 433.316406 702.34375 432.558594 701.589844 431.628906 701.589844 C 430.695312 701.589844 429.941406 702.34375 429.941406 703.277344 C 429.941406 704.207031 430.695312 704.964844 431.628906 704.964844 C 432.558594 704.964844 433.316406 704.207031 433.316406 703.277344 " fill-opacity="1" fill-rule="nonzero"/></g><g clip-path="url(#1d08531f83)"><path fill="#ffffff" d="M 112.691406 686.402344 C 112.691406 685.46875 111.933594 684.714844 111.003906 684.714844 C 110.070312 684.714844 109.316406 685.46875 109.316406 686.402344 C 109.316406 687.332031 110.070312 688.089844 111.003906 688.089844 C 111.933594 688.089844 112.691406 687.332031 112.691406 686.402344 " fill-opacity="1" fill-rule="nonzero"/></g><path fill="#ffffff" d="M 146.441406 686.402344 C 146.441406 685.46875 145.683594 684.714844 144.753906 684.714844 C 143.820312 684.714844 143.066406 685.46875 143.066406 686.402344 C 143.066406 687.332031 143.820312 688.089844 144.753906 688.089844 C 145.683594 688.089844 146.441406 687.332031 146.441406 686.402344 " fill-opacity="1" fill-rule="nonzero"/><path fill="#ffffff" d="M 180.191406 686.402344 C 180.191406 685.46875 179.433594 684.714844 178.503906 684.714844 C 177.570312 684.714844 176.816406 685.46875 176.816406 686.402344 C 176.816406 687.332031 177.570312 688.089844 178.503906 688.089844 C 179.433594 688.089844 180.191406 687.332031 180.191406 686.402344 " fill-opacity="1" fill-rule="nonzero"/><path fill="#ffffff" d="M 213.941406 686.402344 C 213.941406 685.46875 213.183594 684.714844 212.253906 684.714844 C 211.320312 684.714844 210.566406 685.46875 210.566406 686.402344 C 210.566406 687.332031 211.320312 688.089844 212.253906 688.089844 C 213.183594 688.089844 213.941406 687.332031 213.941406 686.402344 " fill-opacity="1" fill-rule="nonzero"/><path fill="#ffffff" d="M 247.691406 686.402344 C 247.691406 685.46875 246.933594 684.714844 246.003906 684.714844 C 245.070312 684.714844 244.316406 685.46875 244.316406 686.402344 C 244.316406 687.332031 245.070312 688.089844 246.003906 688.089844 C 246.933594 688.089844 247.691406 687.332031 247.691406 686.402344 " fill-opacity="1" fill-rule="nonzero"/><path fill="#ffffff" d="M 281.441406 686.402344 C 281.441406 685.46875 280.683594 684.714844 279.753906 684.714844 C 278.820312 684.714844 278.066406 685.46875 278.066406 686.402344 C 278.066406 687.332031 278.820312 688.089844 279.753906 688.089844 C 280.683594 688.089844 281.441406 687.332031 281.441406 686.402344 " fill-opacity="1" fill-rule="nonzero"/><path fill="#ffffff" d="M 315.191406 686.402344 C 315.191406 685.46875 314.433594 684.714844 313.503906 684.714844 C 312.570312 684.714844 311.816406 685.46875 311.816406 686.402344 C 311.816406 687.332031 312.570312 688.089844 313.503906 688.089844 C 314.433594 688.089844 315.191406 687.332031 315.191406 686.402344 " fill-opacity="1" fill-rule="nonzero"/><path fill="#ffffff" d="M 348.941406 686.402344 C 348.941406 685.46875 348.183594 684.714844 347.253906 684.714844 C 346.320312 684.714844 345.566406 685.46875 345.566406 686.402344 C 345.566406 687.332031 346.320312 688.089844 347.253906 688.089844 C 348.183594 688.089844 348.941406 687.332031 348.941406 686.402344 " fill-opacity="1" fill-rule="nonzero"/><path fill="#ffffff" d="M 382.691406 686.402344 C 382.691406 685.46875 381.933594 684.714844 381.003906 684.714844 C 380.070312 684.714844 379.316406 685.46875 379.316406 686.402344 C 379.316406 687.332031 380.070312 688.089844 381.003906 688.089844 C 381.933594 688.089844 382.691406 687.332031 382.691406 686.402344 " fill-opacity="1" fill-rule="nonzero"/><path fill="#ffffff" d="M 416.441406 686.402344 C 416.441406 685.46875 415.683594 684.714844 414.753906 684.714844 C 413.820312 684.714844 413.066406 685.46875 413.066406 686.402344 C 413.066406 687.332031 413.820312 688.089844 414.753906 688.089844 C 415.683594 688.089844 416.441406 687.332031 416.441406 686.402344 " fill-opacity="1" fill-rule="nonzero"/><path fill="#ffffff" d="M 129.566406 669.527344 C 129.566406 668.59375 128.808594 667.839844 127.878906 667.839844 C 126.945312 667.839844 126.191406 668.59375 126.191406 669.527344 C 126.191406 670.457031 126.945312 671.214844 127.878906 671.214844 C 128.808594 671.214844 129.566406 670.457031 129.566406 669.527344 " fill-opacity="1" fill-rule="nonzero"/><path fill="#ffffff" d="M 163.316406 669.527344 C 163.316406 668.59375 162.558594 667.839844 161.628906 667.839844 C 160.695312 667.839844 159.941406 668.59375 159.941406 669.527344 C 159.941406 670.457031 160.695312 671.214844 161.628906 671.214844 C 162.558594 671.214844 163.316406 670.457031 163.316406 669.527344 " fill-opacity="1" fill-rule="nonzero"/><path fill="#ffffff" d="M 197.066406 669.527344 C 197.066406 668.59375 196.308594 667.839844 195.378906 667.839844 C 194.445312 667.839844 193.691406 668.59375 193.691406 669.527344 C 193.691406 670.457031 194.445312 671.214844 195.378906 671.214844 C 196.308594 671.214844 197.066406 670.457031 197.066406 669.527344 " fill-opacity="1" fill-rule="nonzero"/><path fill="#ffffff" d="M 230.816406 669.527344 C 230.816406 668.59375 230.058594 667.839844 229.128906 667.839844 C 228.195312 667.839844 227.441406 668.59375 227.441406 669.527344 C 227.441406 670.457031 228.195312 671.214844 229.128906 671.214844 C 230.058594 671.214844 230.816406 670.457031 230.816406 669.527344 " fill-opacity="1" fill-rule="nonzero"/><path fill="#ffffff" d="M 264.566406 669.527344 C 264.566406 668.59375 263.808594 667.839844 262.878906 667.839844 C 261.945312 667.839844 261.191406 668.59375 261.191406 669.527344 C 261.191406 670.457031 261.945312 671.214844 262.878906 671.214844 C 263.808594 671.214844 264.566406 670.457031 264.566406 669.527344 " fill-opacity="1" fill-rule="nonzero"/><path fill="#ffffff" d="M 298.316406 669.527344 C 298.316406 668.59375 297.558594 667.839844 296.628906 667.839844 C 295.695312 667.839844 294.941406 668.59375 294.941406 669.527344 C 294.941406 670.457031 295.695312 671.214844 296.628906 671.214844 C 297.558594 671.214844 298.316406 670.457031 298.316406 669.527344 " fill-opacity="1" fill-rule="nonzero"/><path fill="#ffffff" d="M 332.066406 669.527344 C 332.066406 668.59375 331.308594 667.839844 330.378906 667.839844 C 329.445312 667.839844 328.691406 668.59375 328.691406 669.527344 C 328.691406 670.457031 329.445312 671.214844 330.378906 671.214844 C 331.308594 671.214844 332.066406 670.457031 332.066406 669.527344 " fill-opacity="1" fill-rule="nonzero"/><path fill="#ffffff" d="M 365.816406 669.527344 C 365.816406 668.59375 365.058594 667.839844 364.128906 667.839844 C 363.195312 667.839844 362.441406 668.59375 362.441406 669.527344 C 362.441406 670.457031 363.195312 671.214844 364.128906 671.214844 C 365.058594 671.214844 365.816406 670.457031 365.816406 669.527344 " fill-opacity="1" fill-rule="nonzero"/><path fill="#ffffff" d="M 399.566406 669.527344 C 399.566406 668.59375 398.808594 667.839844 397.878906 667.839844 C 396.945312 667.839844 396.191406 668.59375 396.191406 669.527344 C 396.191406 670.457031 396.945312 671.214844 397.878906 671.214844 C 398.808594 671.214844 399.566406 670.457031 399.566406 669.527344 " fill-opacity="1" fill-rule="nonzero"/><g clip-path="url(#4f7a61d884)"><path fill="#ffffff" d="M 433.316406 669.527344 C 433.316406 668.59375 432.558594 667.839844 431.628906 667.839844 C 430.695312 667.839844 429.941406 668.59375 429.941406 669.527344 C 429.941406 670.457031 430.695312 671.214844 431.628906 671.214844 C 432.558594 671.214844 433.316406 670.457031 433.316406 669.527344 " fill-opacity="1" fill-rule="nonzero"/></g><g clip-path="url(#4fc79f00c8)"><path fill="#ffffff" d="M 112.691406 652.652344 C 112.691406 651.71875 111.933594 650.964844 111.003906 650.964844 C 110.070312 650.964844 109.316406 651.71875 109.316406 652.652344 C 109.316406 653.582031 110.070312 654.339844 111.003906 654.339844 C 111.933594 654.339844 112.691406 653.582031 112.691406 652.652344 " fill-opacity="1" fill-rule="nonzero"/></g><path fill="#ffffff" d="M 146.441406 652.652344 C 146.441406 651.71875 145.683594 650.964844 144.753906 650.964844 C 143.820312 650.964844 143.066406 651.71875 143.066406 652.652344 C 143.066406 653.582031 143.820312 654.339844 144.753906 654.339844 C 145.683594 654.339844 146.441406 653.582031 146.441406 652.652344 " fill-opacity="1" fill-rule="nonzero"/><path fill="#ffffff" d="M 180.191406 652.652344 C 180.191406 651.71875 179.433594 650.964844 178.503906 650.964844 C 177.570312 650.964844 176.816406 651.71875 176.816406 652.652344 C 176.816406 653.582031 177.570312 654.339844 178.503906 654.339844 C 179.433594 654.339844 180.191406 653.582031 180.191406 652.652344 " fill-opacity="1" fill-rule="nonzero"/><path fill="#ffffff" d="M 213.941406 652.652344 C 213.941406 651.71875 213.183594 650.964844 212.253906 650.964844 C 211.320312 650.964844 210.566406 651.71875 210.566406 652.652344 C 210.566406 653.582031 211.320312 654.339844 212.253906 654.339844 C 213.183594 654.339844 213.941406 653.582031 213.941406 652.652344 " fill-opacity="1" fill-rule="nonzero"/><path fill="#ffffff" d="M 247.691406 652.652344 C 247.691406 651.71875 246.933594 650.964844 246.003906 650.964844 C 245.070312 650.964844 244.316406 651.71875 244.316406 652.652344 C 244.316406 653.582031 245.070312 654.339844 246.003906 654.339844 C 246.933594 654.339844 247.691406 653.582031 247.691406 652.652344 " fill-opacity="1" fill-rule="nonzero"/><path fill="#ffffff" d="M 281.441406 652.652344 C 281.441406 651.71875 280.683594 650.964844 279.753906 650.964844 C 278.820312 650.964844 278.066406 651.71875 278.066406 652.652344 C 278.066406 653.582031 278.820312 654.339844 279.753906 654.339844 C 280.683594 654.339844 281.441406 653.582031 281.441406 652.652344 " fill-opacity="1" fill-rule="nonzero"/><path fill="#ffffff" d="M 315.191406 652.652344 C 315.191406 651.71875 314.433594 650.964844 313.503906 650.964844 C 312.570312 650.964844 311.816406 651.71875 311.816406 652.652344 C 311.816406 653.582031 312.570312 654.339844 313.503906 654.339844 C 314.433594 654.339844 315.191406 653.582031 315.191406 652.652344 " fill-opacity="1" fill-rule="nonzero"/><path fill="#ffffff" d="M 348.941406 652.652344 C 348.941406 651.71875 348.183594 650.964844 347.253906 650.964844 C 346.320312 650.964844 345.566406 651.71875 345.566406 652.652344 C 345.566406 653.582031 346.320312 654.339844 347.253906 654.339844 C 348.183594 654.339844 348.941406 653.582031 348.941406 652.652344 " fill-opacity="1" fill-rule="nonzero"/><path fill="#ffffff" d="M 382.691406 652.652344 C 382.691406 651.71875 381.933594 650.964844 381.003906 650.964844 C 380.070312 650.964844 379.316406 651.71875 379.316406 652.652344 C 379.316406 653.582031 380.070312 654.339844 381.003906 654.339844 C 381.933594 654.339844 382.691406 653.582031 382.691406 652.652344 " fill-opacity="1" fill-rule="nonzero"/><path fill="#ffffff" d="M 416.441406 652.652344 C 416.441406 651.71875 415.683594 650.964844 414.753906 650.964844 C 413.820312 650.964844 413.066406 651.71875 413.066406 652.652344 C 413.066406 653.582031 413.820312 654.339844 414.753906 654.339844 C 415.683594 654.339844 416.441406 653.582031 416.441406 652.652344 " fill-opacity="1" fill-rule="nonzero"/><path fill="#ffffff" d="M 129.566406 635.777344 C 129.566406 634.84375 128.808594 634.089844 127.878906 634.089844 C 126.945312 634.089844 126.191406 634.84375 126.191406 635.777344 C 126.191406 636.707031 126.945312 637.464844 127.878906 637.464844 C 128.808594 637.464844 129.566406 636.707031 129.566406 635.777344 " fill-opacity="1" fill-rule="nonzero"/><path fill="#ffffff" d="M 163.316406 635.777344 C 163.316406 634.84375 162.558594 634.089844 161.628906 634.089844 C 160.695312 634.089844 159.941406 634.84375 159.941406 635.777344 C 159.941406 636.707031 160.695312 637.464844 161.628906 637.464844 C 162.558594 637.464844 163.316406 636.707031 163.316406 635.777344 " fill-opacity="1" fill-rule="nonzero"/><path fill="#ffffff" d="M 197.066406 635.777344 C 197.066406 634.84375 196.308594 634.089844 195.378906 634.089844 C 194.445312 634.089844 193.691406 634.84375 193.691406 635.777344 C 193.691406 636.707031 194.445312 637.464844 195.378906 637.464844 C 196.308594 637.464844 197.066406 636.707031 197.066406 635.777344 " fill-opacity="1" fill-rule="nonzero"/><path fill="#ffffff" d="M 230.816406 635.777344 C 230.816406 634.84375 230.058594 634.089844 229.128906 634.089844 C 228.195312 634.089844 227.441406 634.84375 227.441406 635.777344 C 227.441406 636.707031 228.195312 637.464844 229.128906 637.464844 C 230.058594 637.464844 230.816406 636.707031 230.816406 635.777344 " fill-opacity="1" fill-rule="nonzero"/><path fill="#ffffff" d="M 264.566406 635.777344 C 264.566406 634.84375 263.808594 634.089844 262.878906 634.089844 C 261.945312 634.089844 261.191406 634.84375 261.191406 635.777344 C 261.191406 636.707031 261.945312 637.464844 262.878906 637.464844 C 263.808594 637.464844 264.566406 636.707031 264.566406 635.777344 " fill-opacity="1" fill-rule="nonzero"/><path fill="#ffffff" d="M 298.316406 635.777344 C 298.316406 634.84375 297.558594 634.089844 296.628906 634.089844 C 295.695312 634.089844 294.941406 634.84375 294.941406 635.777344 C 294.941406 636.707031 295.695312 637.464844 296.628906 637.464844 C 297.558594 637.464844 298.316406 636.707031 298.316406 635.777344 " fill-opacity="1" fill-rule="nonzero"/><path fill="#ffffff" d="M 332.066406 635.777344 C 332.066406 634.84375 331.308594 634.089844 330.378906 634.089844 C 329.445312 634.089844 328.691406 634.84375 328.691406 635.777344 C 328.691406 636.707031 329.445312 637.464844 330.378906 637.464844 C 331.308594 637.464844 332.066406 636.707031 332.066406 635.777344 " fill-opacity="1" fill-rule="nonzero"/><path fill="#ffffff" d="M 365.816406 635.777344 C 365.816406 634.84375 365.058594 634.089844 364.128906 634.089844 C 363.195312 634.089844 362.441406 634.84375 362.441406 635.777344 C 362.441406 636.707031 363.195312 637.464844 364.128906 637.464844 C 365.058594 637.464844 365.816406 636.707031 365.816406 635.777344 " fill-opacity="1" fill-rule="nonzero"/><path fill="#ffffff" d="M 399.566406 635.777344 C 399.566406 634.84375 398.808594 634.089844 397.878906 634.089844 C 396.945312 634.089844 396.191406 634.84375 396.191406 635.777344 C 396.191406 636.707031 396.945312 637.464844 397.878906 637.464844 C 398.808594 637.464844 399.566406 636.707031 399.566406 635.777344 " fill-opacity="1" fill-rule="nonzero"/><g clip-path="url(#333f62d0e9)"><path fill="#ffffff" d="M 433.316406 635.777344 C 433.316406 634.84375 432.558594 634.089844 431.628906 634.089844 C 430.695312 634.089844 429.941406 634.84375 429.941406 635.777344 C 429.941406 636.707031 430.695312 637.464844 431.628906 637.464844 C 432.558594 637.464844 433.316406 636.707031 433.316406 635.777344 " fill-opacity="1" fill-rule="nonzero"/></g><g clip-path="url(#16b8d2f269)"><path fill="#ffffff" d="M 112.691406 618.902344 C 112.691406 617.96875 111.933594 617.214844 111.003906 617.214844 C 110.070312 617.214844 109.316406 617.96875 109.316406 618.902344 C 109.316406 619.832031 110.070312 620.589844 111.003906 620.589844 C 111.933594 620.589844 112.691406 619.832031 112.691406 618.902344 " fill-opacity="1" fill-rule="nonzero"/></g><path fill="#ffffff" d="M 146.441406 618.902344 C 146.441406 617.96875 145.683594 617.214844 144.753906 617.214844 C 143.820312 617.214844 143.066406 617.96875 143.066406 618.902344 C 143.066406 619.832031 143.820312 620.589844 144.753906 620.589844 C 145.683594 620.589844 146.441406 619.832031 146.441406 618.902344 " fill-opacity="1" fill-rule="nonzero"/><path fill="#ffffff" d="M 180.191406 618.902344 C 180.191406 617.96875 179.433594 617.214844 178.503906 617.214844 C 177.570312 617.214844 176.816406 617.96875 176.816406 618.902344 C 176.816406 619.832031 177.570312 620.589844 178.503906 620.589844 C 179.433594 620.589844 180.191406 619.832031 180.191406 618.902344 " fill-opacity="1" fill-rule="nonzero"/><path fill="#ffffff" d="M 213.941406 618.902344 C 213.941406 617.96875 213.183594 617.214844 212.253906 617.214844 C 211.320312 617.214844 210.566406 617.96875 210.566406 618.902344 C 210.566406 619.832031 211.320312 620.589844 212.253906 620.589844 C 213.183594 620.589844 213.941406 619.832031 213.941406 618.902344 " fill-opacity="1" fill-rule="nonzero"/><path fill="#ffffff" d="M 247.691406 618.902344 C 247.691406 617.96875 246.933594 617.214844 246.003906 617.214844 C 245.070312 617.214844 244.316406 617.96875 244.316406 618.902344 C 244.316406 619.832031 245.070312 620.589844 246.003906 620.589844 C 246.933594 620.589844 247.691406 619.832031 247.691406 618.902344 " fill-opacity="1" fill-rule="nonzero"/><path fill="#ffffff" d="M 281.441406 618.902344 C 281.441406 617.96875 280.683594 617.214844 279.753906 617.214844 C 278.820312 617.214844 278.066406 617.96875 278.066406 618.902344 C 278.066406 619.832031 278.820312 620.589844 279.753906 620.589844 C 280.683594 620.589844 281.441406 619.832031 281.441406 618.902344 " fill-opacity="1" fill-rule="nonzero"/><path fill="#ffffff" d="M 315.191406 618.902344 C 315.191406 617.96875 314.433594 617.214844 313.503906 617.214844 C 312.570312 617.214844 311.816406 617.96875 311.816406 618.902344 C 311.816406 619.832031 312.570312 620.589844 313.503906 620.589844 C 314.433594 620.589844 315.191406 619.832031 315.191406 618.902344 " fill-opacity="1" fill-rule="nonzero"/><path fill="#ffffff" d="M 348.941406 618.902344 C 348.941406 617.96875 348.183594 617.214844 347.253906 617.214844 C 346.320312 617.214844 345.566406 617.96875 345.566406 618.902344 C 345.566406 619.832031 346.320312 620.589844 347.253906 620.589844 C 348.183594 620.589844 348.941406 619.832031 348.941406 618.902344 " fill-opacity="1" fill-rule="nonzero"/><path fill="#ffffff" d="M 382.691406 618.902344 C 382.691406 617.96875 381.933594 617.214844 381.003906 617.214844 C 380.070312 617.214844 379.316406 617.96875 379.316406 618.902344 C 379.316406 619.832031 380.070312 620.589844 381.003906 620.589844 C 381.933594 620.589844 382.691406 619.832031 382.691406 618.902344 " fill-opacity="1" fill-rule="nonzero"/><path fill="#ffffff" d="M 416.441406 618.902344 C 416.441406 617.96875 415.683594 617.214844 414.753906 617.214844 C 413.820312 617.214844 413.066406 617.96875 413.066406 618.902344 C 413.066406 619.832031 413.820312 620.589844 414.753906 620.589844 C 415.683594 620.589844 416.441406 619.832031 416.441406 618.902344 " fill-opacity="1" fill-rule="nonzero"/><path fill="#ffffff" d="M 129.566406 602.027344 C 129.566406 601.09375 128.808594 600.339844 127.878906 600.339844 C 126.945312 600.339844 126.191406 601.09375 126.191406 602.027344 C 126.191406 602.957031 126.945312 603.714844 127.878906 603.714844 C 128.808594 603.714844 129.566406 602.957031 129.566406 602.027344 " fill-opacity="1" fill-rule="nonzero"/><path fill="#ffffff" d="M 163.316406 602.027344 C 163.316406 601.09375 162.558594 600.339844 161.628906 600.339844 C 160.695312 600.339844 159.941406 601.09375 159.941406 602.027344 C 159.941406 602.957031 160.695312 603.714844 161.628906 603.714844 C 162.558594 603.714844 163.316406 602.957031 163.316406 602.027344 " fill-opacity="1" fill-rule="nonzero"/><path fill="#ffffff" d="M 197.066406 602.027344 C 197.066406 601.09375 196.308594 600.339844 195.378906 600.339844 C 194.445312 600.339844 193.691406 601.09375 193.691406 602.027344 C 193.691406 602.957031 194.445312 603.714844 195.378906 603.714844 C 196.308594 603.714844 197.066406 602.957031 197.066406 602.027344 " fill-opacity="1" fill-rule="nonzero"/><path fill="#ffffff" d="M 230.816406 602.027344 C 230.816406 601.09375 230.058594 600.339844 229.128906 600.339844 C 228.195312 600.339844 227.441406 601.09375 227.441406 602.027344 C 227.441406 602.957031 228.195312 603.714844 229.128906 603.714844 C 230.058594 603.714844 230.816406 602.957031 230.816406 602.027344 " fill-opacity="1" fill-rule="nonzero"/><path fill="#ffffff" d="M 264.566406 602.027344 C 264.566406 601.09375 263.808594 600.339844 262.878906 600.339844 C 261.945312 600.339844 261.191406 601.09375 261.191406 602.027344 C 261.191406 602.957031 261.945312 603.714844 262.878906 603.714844 C 263.808594 603.714844 264.566406 602.957031 264.566406 602.027344 " fill-opacity="1" fill-rule="nonzero"/><path fill="#ffffff" d="M 298.316406 602.027344 C 298.316406 601.09375 297.558594 600.339844 296.628906 600.339844 C 295.695312 600.339844 294.941406 601.09375 294.941406 602.027344 C 294.941406 602.957031 295.695312 603.714844 296.628906 603.714844 C 297.558594 603.714844 298.316406 602.957031 298.316406 602.027344 " fill-opacity="1" fill-rule="nonzero"/><path fill="#ffffff" d="M 332.066406 602.027344 C 332.066406 601.09375 331.308594 600.339844 330.378906 600.339844 C 329.445312 600.339844 328.691406 601.09375 328.691406 602.027344 C 328.691406 602.957031 329.445312 603.714844 330.378906 603.714844 C 331.308594 603.714844 332.066406 602.957031 332.066406 602.027344 " fill-opacity="1" fill-rule="nonzero"/><path fill="#ffffff" d="M 365.816406 602.027344 C 365.816406 601.09375 365.058594 600.339844 364.128906 600.339844 C 363.195312 600.339844 362.441406 601.09375 362.441406 602.027344 C 362.441406 602.957031 363.195312 603.714844 364.128906 603.714844 C 365.058594 603.714844 365.816406 602.957031 365.816406 602.027344 " fill-opacity="1" fill-rule="nonzero"/><path fill="#ffffff" d="M 399.566406 602.027344 C 399.566406 601.09375 398.808594 600.339844 397.878906 600.339844 C 396.945312 600.339844 396.191406 601.09375 396.191406 602.027344 C 396.191406 602.957031 396.945312 603.714844 397.878906 603.714844 C 398.808594 603.714844 399.566406 602.957031 399.566406 602.027344 " fill-opacity="1" fill-rule="nonzero"/><g clip-path="url(#00ac2811c2)"><path fill="#ffffff" d="M 433.316406 602.027344 C 433.316406 601.09375 432.558594 600.339844 431.628906 600.339844 C 430.695312 600.339844 429.941406 601.09375 429.941406 602.027344 C 429.941406 602.957031 430.695312 603.714844 431.628906 603.714844 C 432.558594 603.714844 433.316406 602.957031 433.316406 602.027344 " fill-opacity="1" fill-rule="nonzero"/></g><g clip-path="url(#9b1e222b4d)"><path fill="#ffffff" d="M 112.691406 585.152344 C 112.691406 584.21875 111.933594 583.464844 111.003906 583.464844 C 110.070312 583.464844 109.316406 584.21875 109.316406 585.152344 C 109.316406 586.082031 110.070312 586.839844 111.003906 586.839844 C 111.933594 586.839844 112.691406 586.082031 112.691406 585.152344 " fill-opacity="1" fill-rule="nonzero"/></g><path fill="#ffffff" d="M 146.441406 585.152344 C 146.441406 584.21875 145.683594 583.464844 144.753906 583.464844 C 143.820312 583.464844 143.066406 584.21875 143.066406 585.152344 C 143.066406 586.082031 143.820312 586.839844 144.753906 586.839844 C 145.683594 586.839844 146.441406 586.082031 146.441406 585.152344 " fill-opacity="1" fill-rule="nonzero"/><path fill="#ffffff" d="M 180.191406 585.152344 C 180.191406 584.21875 179.433594 583.464844 178.503906 583.464844 C 177.570312 583.464844 176.816406 584.21875 176.816406 585.152344 C 176.816406 586.082031 177.570312 586.839844 178.503906 586.839844 C 179.433594 586.839844 180.191406 586.082031 180.191406 585.152344 " fill-opacity="1" fill-rule="nonzero"/><path fill="#ffffff" d="M 213.941406 585.152344 C 213.941406 584.21875 213.183594 583.464844 212.253906 583.464844 C 211.320312 583.464844 210.566406 584.21875 210.566406 585.152344 C 210.566406 586.082031 211.320312 586.839844 212.253906 586.839844 C 213.183594 586.839844 213.941406 586.082031 213.941406 585.152344 " fill-opacity="1" fill-rule="nonzero"/><path fill="#ffffff" d="M 247.691406 585.152344 C 247.691406 584.21875 246.933594 583.464844 246.003906 583.464844 C 245.070312 583.464844 244.316406 584.21875 244.316406 585.152344 C 244.316406 586.082031 245.070312 586.839844 246.003906 586.839844 C 246.933594 586.839844 247.691406 586.082031 247.691406 585.152344 " fill-opacity="1" fill-rule="nonzero"/><path fill="#ffffff" d="M 281.441406 585.152344 C 281.441406 584.21875 280.683594 583.464844 279.753906 583.464844 C 278.820312 583.464844 278.066406 584.21875 278.066406 585.152344 C 278.066406 586.082031 278.820312 586.839844 279.753906 586.839844 C 280.683594 586.839844 281.441406 586.082031 281.441406 585.152344 " fill-opacity="1" fill-rule="nonzero"/><path fill="#ffffff" d="M 315.191406 585.152344 C 315.191406 584.21875 314.433594 583.464844 313.503906 583.464844 C 312.570312 583.464844 311.816406 584.21875 311.816406 585.152344 C 311.816406 586.082031 312.570312 586.839844 313.503906 586.839844 C 314.433594 586.839844 315.191406 586.082031 315.191406 585.152344 " fill-opacity="1" fill-rule="nonzero"/><path fill="#ffffff" d="M 348.941406 585.152344 C 348.941406 584.21875 348.183594 583.464844 347.253906 583.464844 C 346.320312 583.464844 345.566406 584.21875 345.566406 585.152344 C 345.566406 586.082031 346.320312 586.839844 347.253906 586.839844 C 348.183594 586.839844 348.941406 586.082031 348.941406 585.152344 " fill-opacity="1" fill-rule="nonzero"/><path fill="#ffffff" d="M 382.691406 585.152344 C 382.691406 584.21875 381.933594 583.464844 381.003906 583.464844 C 380.070312 583.464844 379.316406 584.21875 379.316406 585.152344 C 379.316406 586.082031 380.070312 586.839844 381.003906 586.839844 C 381.933594 586.839844 382.691406 586.082031 382.691406 585.152344 " fill-opacity="1" fill-rule="nonzero"/><path fill="#ffffff" d="M 416.441406 585.152344 C 416.441406 584.21875 415.683594 583.464844 414.753906 583.464844 C 413.820312 583.464844 413.066406 584.21875 413.066406 585.152344 C 413.066406 586.082031 413.820312 586.839844 414.753906 586.839844 C 415.683594 586.839844 416.441406 586.082031 416.441406 585.152344 " fill-opacity="1" fill-rule="nonzero"/><path fill="#ffffff" d="M 129.566406 568.277344 C 129.566406 567.34375 128.808594 566.589844 127.878906 566.589844 C 126.945312 566.589844 126.191406 567.34375 126.191406 568.277344 C 126.191406 569.207031 126.945312 569.964844 127.878906 569.964844 C 128.808594 569.964844 129.566406 569.207031 129.566406 568.277344 " fill-opacity="1" fill-rule="nonzero"/><path fill="#ffffff" d="M 163.316406 568.277344 C 163.316406 567.34375 162.558594 566.589844 161.628906 566.589844 C 160.695312 566.589844 159.941406 567.34375 159.941406 568.277344 C 159.941406 569.207031 160.695312 569.964844 161.628906 569.964844 C 162.558594 569.964844 163.316406 569.207031 163.316406 568.277344 " fill-opacity="1" fill-rule="nonzero"/><path fill="#ffffff" d="M 197.066406 568.277344 C 197.066406 567.34375 196.308594 566.589844 195.378906 566.589844 C 194.445312 566.589844 193.691406 567.34375 193.691406 568.277344 C 193.691406 569.207031 194.445312 569.964844 195.378906 569.964844 C 196.308594 569.964844 197.066406 569.207031 197.066406 568.277344 " fill-opacity="1" fill-rule="nonzero"/><path fill="#ffffff" d="M 230.816406 568.277344 C 230.816406 567.34375 230.058594 566.589844 229.128906 566.589844 C 228.195312 566.589844 227.441406 567.34375 227.441406 568.277344 C 227.441406 569.207031 228.195312 569.964844 229.128906 569.964844 C 230.058594 569.964844 230.816406 569.207031 230.816406 568.277344 " fill-opacity="1" fill-rule="nonzero"/><path fill="#ffffff" d="M 264.566406 568.277344 C 264.566406 567.34375 263.808594 566.589844 262.878906 566.589844 C 261.945312 566.589844 261.191406 567.34375 261.191406 568.277344 C 261.191406 569.207031 261.945312 569.964844 262.878906 569.964844 C 263.808594 569.964844 264.566406 569.207031 264.566406 568.277344 " fill-opacity="1" fill-rule="nonzero"/><path fill="#ffffff" d="M 298.316406 568.277344 C 298.316406 567.34375 297.558594 566.589844 296.628906 566.589844 C 295.695312 566.589844 294.941406 567.34375 294.941406 568.277344 C 294.941406 569.207031 295.695312 569.964844 296.628906 569.964844 C 297.558594 569.964844 298.316406 569.207031 298.316406 568.277344 " fill-opacity="1" fill-rule="nonzero"/><path fill="#ffffff" d="M 332.066406 568.277344 C 332.066406 567.34375 331.308594 566.589844 330.378906 566.589844 C 329.445312 566.589844 328.691406 567.34375 328.691406 568.277344 C 328.691406 569.207031 329.445312 569.964844 330.378906 569.964844 C 331.308594 569.964844 332.066406 569.207031 332.066406 568.277344 " fill-opacity="1" fill-rule="nonzero"/><path fill="#ffffff" d="M 365.816406 568.277344 C 365.816406 567.34375 365.058594 566.589844 364.128906 566.589844 C 363.195312 566.589844 362.441406 567.34375 362.441406 568.277344 C 362.441406 569.207031 363.195312 569.964844 364.128906 569.964844 C 365.058594 569.964844 365.816406 569.207031 365.816406 568.277344 " fill-opacity="1" fill-rule="nonzero"/><path fill="#ffffff" d="M 399.566406 568.277344 C 399.566406 567.34375 398.808594 566.589844 397.878906 566.589844 C 396.945312 566.589844 396.191406 567.34375 396.191406 568.277344 C 396.191406 569.207031 396.945312 569.964844 397.878906 569.964844 C 398.808594 569.964844 399.566406 569.207031 399.566406 568.277344 " fill-opacity="1" fill-rule="nonzero"/><g clip-path="url(#ce9e9e2b37)"><path fill="#ffffff" d="M 433.316406 568.277344 C 433.316406 567.34375 432.558594 566.589844 431.628906 566.589844 C 430.695312 566.589844 429.941406 567.34375 429.941406 568.277344 C 429.941406 569.207031 430.695312 569.964844 431.628906 569.964844 C 432.558594 569.964844 433.316406 569.207031 433.316406 568.277344 " fill-opacity="1" fill-rule="nonzero"/></g><g clip-path="url(#c19f749171)"><path fill="#ffffff" d="M 112.691406 551.402344 C 112.691406 550.46875 111.933594 549.714844 111.003906 549.714844 C 110.070312 549.714844 109.316406 550.46875 109.316406 551.402344 C 109.316406 552.332031 110.070312 553.089844 111.003906 553.089844 C 111.933594 553.089844 112.691406 552.332031 112.691406 551.402344 " fill-opacity="1" fill-rule="nonzero"/></g><path fill="#ffffff" d="M 146.441406 551.402344 C 146.441406 550.46875 145.683594 549.714844 144.753906 549.714844 C 143.820312 549.714844 143.066406 550.46875 143.066406 551.402344 C 143.066406 552.332031 143.820312 553.089844 144.753906 553.089844 C 145.683594 553.089844 146.441406 552.332031 146.441406 551.402344 " fill-opacity="1" fill-rule="nonzero"/><path fill="#ffffff" d="M 180.191406 551.402344 C 180.191406 550.46875 179.433594 549.714844 178.503906 549.714844 C 177.570312 549.714844 176.816406 550.46875 176.816406 551.402344 C 176.816406 552.332031 177.570312 553.089844 178.503906 553.089844 C 179.433594 553.089844 180.191406 552.332031 180.191406 551.402344 " fill-opacity="1" fill-rule="nonzero"/><path fill="#ffffff" d="M 213.941406 551.402344 C 213.941406 550.46875 213.183594 549.714844 212.253906 549.714844 C 211.320312 549.714844 210.566406 550.46875 210.566406 551.402344 C 210.566406 552.332031 211.320312 553.089844 212.253906 553.089844 C 213.183594 553.089844 213.941406 552.332031 213.941406 551.402344 " fill-opacity="1" fill-rule="nonzero"/><path fill="#ffffff" d="M 247.691406 551.402344 C 247.691406 550.46875 246.933594 549.714844 246.003906 549.714844 C 245.070312 549.714844 244.316406 550.46875 244.316406 551.402344 C 244.316406 552.332031 245.070312 553.089844 246.003906 553.089844 C 246.933594 553.089844 247.691406 552.332031 247.691406 551.402344 " fill-opacity="1" fill-rule="nonzero"/><path fill="#ffffff" d="M 281.441406 551.402344 C 281.441406 550.46875 280.683594 549.714844 279.753906 549.714844 C 278.820312 549.714844 278.066406 550.46875 278.066406 551.402344 C 278.066406 552.332031 278.820312 553.089844 279.753906 553.089844 C 280.683594 553.089844 281.441406 552.332031 281.441406 551.402344 " fill-opacity="1" fill-rule="nonzero"/><path fill="#ffffff" d="M 315.191406 551.402344 C 315.191406 550.46875 314.433594 549.714844 313.503906 549.714844 C 312.570312 549.714844 311.816406 550.46875 311.816406 551.402344 C 311.816406 552.332031 312.570312 553.089844 313.503906 553.089844 C 314.433594 553.089844 315.191406 552.332031 315.191406 551.402344 " fill-opacity="1" fill-rule="nonzero"/><path fill="#ffffff" d="M 348.941406 551.402344 C 348.941406 550.46875 348.183594 549.714844 347.253906 549.714844 C 346.320312 549.714844 345.566406 550.46875 345.566406 551.402344 C 345.566406 552.332031 346.320312 553.089844 347.253906 553.089844 C 348.183594 553.089844 348.941406 552.332031 348.941406 551.402344 " fill-opacity="1" fill-rule="nonzero"/><path fill="#ffffff" d="M 382.691406 551.402344 C 382.691406 550.46875 381.933594 549.714844 381.003906 549.714844 C 380.070312 549.714844 379.316406 550.46875 379.316406 551.402344 C 379.316406 552.332031 380.070312 553.089844 381.003906 553.089844 C 381.933594 553.089844 382.691406 552.332031 382.691406 551.402344 " fill-opacity="1" fill-rule="nonzero"/><path fill="#ffffff" d="M 416.441406 551.402344 C 416.441406 550.46875 415.683594 549.714844 414.753906 549.714844 C 413.820312 549.714844 413.066406 550.46875 413.066406 551.402344 C 413.066406 552.332031 413.820312 553.089844 414.753906 553.089844 C 415.683594 553.089844 416.441406 552.332031 416.441406 551.402344 " fill-opacity="1" fill-rule="nonzero"/><path fill="#ffffff" d="M 129.566406 534.527344 C 129.566406 533.59375 128.808594 532.839844 127.878906 532.839844 C 126.945312 532.839844 126.191406 533.59375 126.191406 534.527344 C 126.191406 535.457031 126.945312 536.214844 127.878906 536.214844 C 128.808594 536.214844 129.566406 535.457031 129.566406 534.527344 " fill-opacity="1" fill-rule="nonzero"/><path fill="#ffffff" d="M 163.316406 534.527344 C 163.316406 533.59375 162.558594 532.839844 161.628906 532.839844 C 160.695312 532.839844 159.941406 533.59375 159.941406 534.527344 C 159.941406 535.457031 160.695312 536.214844 161.628906 536.214844 C 162.558594 536.214844 163.316406 535.457031 163.316406 534.527344 " fill-opacity="1" fill-rule="nonzero"/><path fill="#ffffff" d="M 197.066406 534.527344 C 197.066406 533.59375 196.308594 532.839844 195.378906 532.839844 C 194.445312 532.839844 193.691406 533.59375 193.691406 534.527344 C 193.691406 535.457031 194.445312 536.214844 195.378906 536.214844 C 196.308594 536.214844 197.066406 535.457031 197.066406 534.527344 " fill-opacity="1" fill-rule="nonzero"/><path fill="#ffffff" d="M 230.816406 534.527344 C 230.816406 533.59375 230.058594 532.839844 229.128906 532.839844 C 228.195312 532.839844 227.441406 533.59375 227.441406 534.527344 C 227.441406 535.457031 228.195312 536.214844 229.128906 536.214844 C 230.058594 536.214844 230.816406 535.457031 230.816406 534.527344 " fill-opacity="1" fill-rule="nonzero"/><path fill="#ffffff" d="M 264.566406 534.527344 C 264.566406 533.59375 263.808594 532.839844 262.878906 532.839844 C 261.945312 532.839844 261.191406 533.59375 261.191406 534.527344 C 261.191406 535.457031 261.945312 536.214844 262.878906 536.214844 C 263.808594 536.214844 264.566406 535.457031 264.566406 534.527344 " fill-opacity="1" fill-rule="nonzero"/><path fill="#ffffff" d="M 298.316406 534.527344 C 298.316406 533.59375 297.558594 532.839844 296.628906 532.839844 C 295.695312 532.839844 294.941406 533.59375 294.941406 534.527344 C 294.941406 535.457031 295.695312 536.214844 296.628906 536.214844 C 297.558594 536.214844 298.316406 535.457031 298.316406 534.527344 " fill-opacity="1" fill-rule="nonzero"/><path fill="#ffffff" d="M 332.066406 534.527344 C 332.066406 533.59375 331.308594 532.839844 330.378906 532.839844 C 329.445312 532.839844 328.691406 533.59375 328.691406 534.527344 C 328.691406 535.457031 329.445312 536.214844 330.378906 536.214844 C 331.308594 536.214844 332.066406 535.457031 332.066406 534.527344 " fill-opacity="1" fill-rule="nonzero"/><path fill="#ffffff" d="M 365.816406 534.527344 C 365.816406 533.59375 365.058594 532.839844 364.128906 532.839844 C 363.195312 532.839844 362.441406 533.59375 362.441406 534.527344 C 362.441406 535.457031 363.195312 536.214844 364.128906 536.214844 C 365.058594 536.214844 365.816406 535.457031 365.816406 534.527344 " fill-opacity="1" fill-rule="nonzero"/><path fill="#ffffff" d="M 399.566406 534.527344 C 399.566406 533.59375 398.808594 532.839844 397.878906 532.839844 C 396.945312 532.839844 396.191406 533.59375 396.191406 534.527344 C 396.191406 535.457031 396.945312 536.214844 397.878906 536.214844 C 398.808594 536.214844 399.566406 535.457031 399.566406 534.527344 " fill-opacity="1" fill-rule="nonzero"/><g clip-path="url(#21f7adbc8a)"><path fill="#ffffff" d="M 433.316406 534.527344 C 433.316406 533.59375 432.558594 532.839844 431.628906 532.839844 C 430.695312 532.839844 429.941406 533.59375 429.941406 534.527344 C 429.941406 535.457031 430.695312 536.214844 431.628906 536.214844 C 432.558594 536.214844 433.316406 535.457031 433.316406 534.527344 " fill-opacity="1" fill-rule="nonzero"/></g><g clip-path="url(#89d0c52150)"><path fill="#ffffff" d="M 112.691406 517.652344 C 112.691406 516.71875 111.933594 515.964844 111.003906 515.964844 C 110.070312 515.964844 109.316406 516.71875 109.316406 517.652344 C 109.316406 518.582031 110.070312 519.339844 111.003906 519.339844 C 111.933594 519.339844 112.691406 518.582031 112.691406 517.652344 " fill-opacity="1" fill-rule="nonzero"/></g><path fill="#ffffff" d="M 146.441406 517.652344 C 146.441406 516.71875 145.683594 515.964844 144.753906 515.964844 C 143.820312 515.964844 143.066406 516.71875 143.066406 517.652344 C 143.066406 518.582031 143.820312 519.339844 144.753906 519.339844 C 145.683594 519.339844 146.441406 518.582031 146.441406 517.652344 " fill-opacity="1" fill-rule="nonzero"/><path fill="#ffffff" d="M 180.191406 517.652344 C 180.191406 516.71875 179.433594 515.964844 178.503906 515.964844 C 177.570312 515.964844 176.816406 516.71875 176.816406 517.652344 C 176.816406 518.582031 177.570312 519.339844 178.503906 519.339844 C 179.433594 519.339844 180.191406 518.582031 180.191406 517.652344 " fill-opacity="1" fill-rule="nonzero"/><path fill="#ffffff" d="M 213.941406 517.652344 C 213.941406 516.71875 213.183594 515.964844 212.253906 515.964844 C 211.320312 515.964844 210.566406 516.71875 210.566406 517.652344 C 210.566406 518.582031 211.320312 519.339844 212.253906 519.339844 C 213.183594 519.339844 213.941406 518.582031 213.941406 517.652344 " fill-opacity="1" fill-rule="nonzero"/><path fill="#ffffff" d="M 247.691406 517.652344 C 247.691406 516.71875 246.933594 515.964844 246.003906 515.964844 C 245.070312 515.964844 244.316406 516.71875 244.316406 517.652344 C 244.316406 518.582031 245.070312 519.339844 246.003906 519.339844 C 246.933594 519.339844 247.691406 518.582031 247.691406 517.652344 " fill-opacity="1" fill-rule="nonzero"/><path fill="#ffffff" d="M 281.441406 517.652344 C 281.441406 516.71875 280.683594 515.964844 279.753906 515.964844 C 278.820312 515.964844 278.066406 516.71875 278.066406 517.652344 C 278.066406 518.582031 278.820312 519.339844 279.753906 519.339844 C 280.683594 519.339844 281.441406 518.582031 281.441406 517.652344 " fill-opacity="1" fill-rule="nonzero"/><path fill="#ffffff" d="M 315.191406 517.652344 C 315.191406 516.71875 314.433594 515.964844 313.503906 515.964844 C 312.570312 515.964844 311.816406 516.71875 311.816406 517.652344 C 311.816406 518.582031 312.570312 519.339844 313.503906 519.339844 C 314.433594 519.339844 315.191406 518.582031 315.191406 517.652344 " fill-opacity="1" fill-rule="nonzero"/><path fill="#ffffff" d="M 348.941406 517.652344 C 348.941406 516.71875 348.183594 515.964844 347.253906 515.964844 C 346.320312 515.964844 345.566406 516.71875 345.566406 517.652344 C 345.566406 518.582031 346.320312 519.339844 347.253906 519.339844 C 348.183594 519.339844 348.941406 518.582031 348.941406 517.652344 " fill-opacity="1" fill-rule="nonzero"/><path fill="#ffffff" d="M 382.691406 517.652344 C 382.691406 516.71875 381.933594 515.964844 381.003906 515.964844 C 380.070312 515.964844 379.316406 516.71875 379.316406 517.652344 C 379.316406 518.582031 380.070312 519.339844 381.003906 519.339844 C 381.933594 519.339844 382.691406 518.582031 382.691406 517.652344 " fill-opacity="1" fill-rule="nonzero"/><path fill="#ffffff" d="M 416.441406 517.652344 C 416.441406 516.71875 415.683594 515.964844 414.753906 515.964844 C 413.820312 515.964844 413.066406 516.71875 413.066406 517.652344 C 413.066406 518.582031 413.820312 519.339844 414.753906 519.339844 C 415.683594 519.339844 416.441406 518.582031 416.441406 517.652344 " fill-opacity="1" fill-rule="nonzero"/><path fill="#ffffff" d="M 129.566406 500.777344 C 129.566406 499.84375 128.808594 499.089844 127.878906 499.089844 C 126.945312 499.089844 126.191406 499.84375 126.191406 500.777344 C 126.191406 501.707031 126.945312 502.464844 127.878906 502.464844 C 128.808594 502.464844 129.566406 501.707031 129.566406 500.777344 " fill-opacity="1" fill-rule="nonzero"/><path fill="#ffffff" d="M 163.316406 500.777344 C 163.316406 499.84375 162.558594 499.089844 161.628906 499.089844 C 160.695312 499.089844 159.941406 499.84375 159.941406 500.777344 C 159.941406 501.707031 160.695312 502.464844 161.628906 502.464844 C 162.558594 502.464844 163.316406 501.707031 163.316406 500.777344 " fill-opacity="1" fill-rule="nonzero"/><path fill="#ffffff" d="M 197.066406 500.777344 C 197.066406 499.84375 196.308594 499.089844 195.378906 499.089844 C 194.445312 499.089844 193.691406 499.84375 193.691406 500.777344 C 193.691406 501.707031 194.445312 502.464844 195.378906 502.464844 C 196.308594 502.464844 197.066406 501.707031 197.066406 500.777344 " fill-opacity="1" fill-rule="nonzero"/><path fill="#ffffff" d="M 230.816406 500.777344 C 230.816406 499.84375 230.058594 499.089844 229.128906 499.089844 C 228.195312 499.089844 227.441406 499.84375 227.441406 500.777344 C 227.441406 501.707031 228.195312 502.464844 229.128906 502.464844 C 230.058594 502.464844 230.816406 501.707031 230.816406 500.777344 " fill-opacity="1" fill-rule="nonzero"/><path fill="#ffffff" d="M 264.566406 500.777344 C 264.566406 499.84375 263.808594 499.089844 262.878906 499.089844 C 261.945312 499.089844 261.191406 499.84375 261.191406 500.777344 C 261.191406 501.707031 261.945312 502.464844 262.878906 502.464844 C 263.808594 502.464844 264.566406 501.707031 264.566406 500.777344 " fill-opacity="1" fill-rule="nonzero"/><path fill="#ffffff" d="M 298.316406 500.777344 C 298.316406 499.84375 297.558594 499.089844 296.628906 499.089844 C 295.695312 499.089844 294.941406 499.84375 294.941406 500.777344 C 294.941406 501.707031 295.695312 502.464844 296.628906 502.464844 C 297.558594 502.464844 298.316406 501.707031 298.316406 500.777344 " fill-opacity="1" fill-rule="nonzero"/><path fill="#ffffff" d="M 332.066406 500.777344 C 332.066406 499.84375 331.308594 499.089844 330.378906 499.089844 C 329.445312 499.089844 328.691406 499.84375 328.691406 500.777344 C 328.691406 501.707031 329.445312 502.464844 330.378906 502.464844 C 331.308594 502.464844 332.066406 501.707031 332.066406 500.777344 " fill-opacity="1" fill-rule="nonzero"/><path fill="#ffffff" d="M 365.816406 500.777344 C 365.816406 499.84375 365.058594 499.089844 364.128906 499.089844 C 363.195312 499.089844 362.441406 499.84375 362.441406 500.777344 C 362.441406 501.707031 363.195312 502.464844 364.128906 502.464844 C 365.058594 502.464844 365.816406 501.707031 365.816406 500.777344 " fill-opacity="1" fill-rule="nonzero"/><path fill="#ffffff" d="M 399.566406 500.777344 C 399.566406 499.84375 398.808594 499.089844 397.878906 499.089844 C 396.945312 499.089844 396.191406 499.84375 396.191406 500.777344 C 396.191406 501.707031 396.945312 502.464844 397.878906 502.464844 C 398.808594 502.464844 399.566406 501.707031 399.566406 500.777344 " fill-opacity="1" fill-rule="nonzero"/><g clip-path="url(#4d71c2bb07)"><path fill="#ffffff" d="M 433.316406 500.777344 C 433.316406 499.84375 432.558594 499.089844 431.628906 499.089844 C 430.695312 499.089844 429.941406 499.84375 429.941406 500.777344 C 429.941406 501.707031 430.695312 502.464844 431.628906 502.464844 C 432.558594 502.464844 433.316406 501.707031 433.316406 500.777344 " fill-opacity="1" fill-rule="nonzero"/></g><g clip-path="url(#9b09e31799)"><path fill="#ffffff" d="M 112.691406 483.902344 C 112.691406 482.96875 111.933594 482.214844 111.003906 482.214844 C 110.070312 482.214844 109.316406 482.96875 109.316406 483.902344 C 109.316406 484.832031 110.070312 485.589844 111.003906 485.589844 C 111.933594 485.589844 112.691406 484.832031 112.691406 483.902344 " fill-opacity="1" fill-rule="nonzero"/></g><path fill="#ffffff" d="M 146.441406 483.902344 C 146.441406 482.96875 145.683594 482.214844 144.753906 482.214844 C 143.820312 482.214844 143.066406 482.96875 143.066406 483.902344 C 143.066406 484.832031 143.820312 485.589844 144.753906 485.589844 C 145.683594 485.589844 146.441406 484.832031 146.441406 483.902344 " fill-opacity="1" fill-rule="nonzero"/><path fill="#ffffff" d="M 180.191406 483.902344 C 180.191406 482.96875 179.433594 482.214844 178.503906 482.214844 C 177.570312 482.214844 176.816406 482.96875 176.816406 483.902344 C 176.816406 484.832031 177.570312 485.589844 178.503906 485.589844 C 179.433594 485.589844 180.191406 484.832031 180.191406 483.902344 " fill-opacity="1" fill-rule="nonzero"/><path fill="#ffffff" d="M 213.941406 483.902344 C 213.941406 482.96875 213.183594 482.214844 212.253906 482.214844 C 211.320312 482.214844 210.566406 482.96875 210.566406 483.902344 C 210.566406 484.832031 211.320312 485.589844 212.253906 485.589844 C 213.183594 485.589844 213.941406 484.832031 213.941406 483.902344 " fill-opacity="1" fill-rule="nonzero"/><path fill="#ffffff" d="M 247.691406 483.902344 C 247.691406 482.96875 246.933594 482.214844 246.003906 482.214844 C 245.070312 482.214844 244.316406 482.96875 244.316406 483.902344 C 244.316406 484.832031 245.070312 485.589844 246.003906 485.589844 C 246.933594 485.589844 247.691406 484.832031 247.691406 483.902344 " fill-opacity="1" fill-rule="nonzero"/><path fill="#ffffff" d="M 281.441406 483.902344 C 281.441406 482.96875 280.683594 482.214844 279.753906 482.214844 C 278.820312 482.214844 278.066406 482.96875 278.066406 483.902344 C 278.066406 484.832031 278.820312 485.589844 279.753906 485.589844 C 280.683594 485.589844 281.441406 484.832031 281.441406 483.902344 " fill-opacity="1" fill-rule="nonzero"/><path fill="#ffffff" d="M 315.191406 483.902344 C 315.191406 482.96875 314.433594 482.214844 313.503906 482.214844 C 312.570312 482.214844 311.816406 482.96875 311.816406 483.902344 C 311.816406 484.832031 312.570312 485.589844 313.503906 485.589844 C 314.433594 485.589844 315.191406 484.832031 315.191406 483.902344 " fill-opacity="1" fill-rule="nonzero"/><path fill="#ffffff" d="M 348.941406 483.902344 C 348.941406 482.96875 348.183594 482.214844 347.253906 482.214844 C 346.320312 482.214844 345.566406 482.96875 345.566406 483.902344 C 345.566406 484.832031 346.320312 485.589844 347.253906 485.589844 C 348.183594 485.589844 348.941406 484.832031 348.941406 483.902344 " fill-opacity="1" fill-rule="nonzero"/><path fill="#ffffff" d="M 382.691406 483.902344 C 382.691406 482.96875 381.933594 482.214844 381.003906 482.214844 C 380.070312 482.214844 379.316406 482.96875 379.316406 483.902344 C 379.316406 484.832031 380.070312 485.589844 381.003906 485.589844 C 381.933594 485.589844 382.691406 484.832031 382.691406 483.902344 " fill-opacity="1" fill-rule="nonzero"/><path fill="#ffffff" d="M 416.441406 483.902344 C 416.441406 482.96875 415.683594 482.214844 414.753906 482.214844 C 413.820312 482.214844 413.066406 482.96875 413.066406 483.902344 C 413.066406 484.832031 413.820312 485.589844 414.753906 485.589844 C 415.683594 485.589844 416.441406 484.832031 416.441406 483.902344 " fill-opacity="1" fill-rule="nonzero"/><path fill="#ffffff" d="M 129.566406 467.027344 C 129.566406 466.09375 128.808594 465.339844 127.878906 465.339844 C 126.945312 465.339844 126.191406 466.09375 126.191406 467.027344 C 126.191406 467.957031 126.945312 468.714844 127.878906 468.714844 C 128.808594 468.714844 129.566406 467.957031 129.566406 467.027344 " fill-opacity="1" fill-rule="nonzero"/><path fill="#ffffff" d="M 163.316406 467.027344 C 163.316406 466.09375 162.558594 465.339844 161.628906 465.339844 C 160.695312 465.339844 159.941406 466.09375 159.941406 467.027344 C 159.941406 467.957031 160.695312 468.714844 161.628906 468.714844 C 162.558594 468.714844 163.316406 467.957031 163.316406 467.027344 " fill-opacity="1" fill-rule="nonzero"/><path fill="#ffffff" d="M 197.066406 467.027344 C 197.066406 466.09375 196.308594 465.339844 195.378906 465.339844 C 194.445312 465.339844 193.691406 466.09375 193.691406 467.027344 C 193.691406 467.957031 194.445312 468.714844 195.378906 468.714844 C 196.308594 468.714844 197.066406 467.957031 197.066406 467.027344 " fill-opacity="1" fill-rule="nonzero"/><path fill="#ffffff" d="M 230.816406 467.027344 C 230.816406 466.09375 230.058594 465.339844 229.128906 465.339844 C 228.195312 465.339844 227.441406 466.09375 227.441406 467.027344 C 227.441406 467.957031 228.195312 468.714844 229.128906 468.714844 C 230.058594 468.714844 230.816406 467.957031 230.816406 467.027344 " fill-opacity="1" fill-rule="nonzero"/><path fill="#ffffff" d="M 264.566406 467.027344 C 264.566406 466.09375 263.808594 465.339844 262.878906 465.339844 C 261.945312 465.339844 261.191406 466.09375 261.191406 467.027344 C 261.191406 467.957031 261.945312 468.714844 262.878906 468.714844 C 263.808594 468.714844 264.566406 467.957031 264.566406 467.027344 " fill-opacity="1" fill-rule="nonzero"/><path fill="#ffffff" d="M 298.316406 467.027344 C 298.316406 466.09375 297.558594 465.339844 296.628906 465.339844 C 295.695312 465.339844 294.941406 466.09375 294.941406 467.027344 C 294.941406 467.957031 295.695312 468.714844 296.628906 468.714844 C 297.558594 468.714844 298.316406 467.957031 298.316406 467.027344 " fill-opacity="1" fill-rule="nonzero"/><path fill="#ffffff" d="M 332.066406 467.027344 C 332.066406 466.09375 331.308594 465.339844 330.378906 465.339844 C 329.445312 465.339844 328.691406 466.09375 328.691406 467.027344 C 328.691406 467.957031 329.445312 468.714844 330.378906 468.714844 C 331.308594 468.714844 332.066406 467.957031 332.066406 467.027344 " fill-opacity="1" fill-rule="nonzero"/><path fill="#ffffff" d="M 365.816406 467.027344 C 365.816406 466.09375 365.058594 465.339844 364.128906 465.339844 C 363.195312 465.339844 362.441406 466.09375 362.441406 467.027344 C 362.441406 467.957031 363.195312 468.714844 364.128906 468.714844 C 365.058594 468.714844 365.816406 467.957031 365.816406 467.027344 " fill-opacity="1" fill-rule="nonzero"/><path fill="#ffffff" d="M 399.566406 467.027344 C 399.566406 466.09375 398.808594 465.339844 397.878906 465.339844 C 396.945312 465.339844 396.191406 466.09375 396.191406 467.027344 C 396.191406 467.957031 396.945312 468.714844 397.878906 468.714844 C 398.808594 468.714844 399.566406 467.957031 399.566406 467.027344 " fill-opacity="1" fill-rule="nonzero"/><g clip-path="url(#aa9fbad286)"><path fill="#ffffff" d="M 433.316406 467.027344 C 433.316406 466.09375 432.558594 465.339844 431.628906 465.339844 C 430.695312 465.339844 429.941406 466.09375 429.941406 467.027344 C 429.941406 467.957031 430.695312 468.714844 431.628906 468.714844 C 432.558594 468.714844 433.316406 467.957031 433.316406 467.027344 " fill-opacity="1" fill-rule="nonzero"/></g><g clip-path="url(#007c8467e9)"><path fill="#ffffff" d="M 112.691406 450.152344 C 112.691406 449.21875 111.933594 448.464844 111.003906 448.464844 C 110.070312 448.464844 109.316406 449.21875 109.316406 450.152344 C 109.316406 451.082031 110.070312 451.839844 111.003906 451.839844 C 111.933594 451.839844 112.691406 451.082031 112.691406 450.152344 " fill-opacity="1" fill-rule="nonzero"/></g><path fill="#ffffff" d="M 146.441406 450.152344 C 146.441406 449.21875 145.683594 448.464844 144.753906 448.464844 C 143.820312 448.464844 143.066406 449.21875 143.066406 450.152344 C 143.066406 451.082031 143.820312 451.839844 144.753906 451.839844 C 145.683594 451.839844 146.441406 451.082031 146.441406 450.152344 " fill-opacity="1" fill-rule="nonzero"/><path fill="#ffffff" d="M 180.191406 450.152344 C 180.191406 449.21875 179.433594 448.464844 178.503906 448.464844 C 177.570312 448.464844 176.816406 449.21875 176.816406 450.152344 C 176.816406 451.082031 177.570312 451.839844 178.503906 451.839844 C 179.433594 451.839844 180.191406 451.082031 180.191406 450.152344 " fill-opacity="1" fill-rule="nonzero"/><path fill="#ffffff" d="M 213.941406 450.152344 C 213.941406 449.21875 213.183594 448.464844 212.253906 448.464844 C 211.320312 448.464844 210.566406 449.21875 210.566406 450.152344 C 210.566406 451.082031 211.320312 451.839844 212.253906 451.839844 C 213.183594 451.839844 213.941406 451.082031 213.941406 450.152344 " fill-opacity="1" fill-rule="nonzero"/><path fill="#ffffff" d="M 247.691406 450.152344 C 247.691406 449.21875 246.933594 448.464844 246.003906 448.464844 C 245.070312 448.464844 244.316406 449.21875 244.316406 450.152344 C 244.316406 451.082031 245.070312 451.839844 246.003906 451.839844 C 246.933594 451.839844 247.691406 451.082031 247.691406 450.152344 " fill-opacity="1" fill-rule="nonzero"/><path fill="#ffffff" d="M 281.441406 450.152344 C 281.441406 449.21875 280.683594 448.464844 279.753906 448.464844 C 278.820312 448.464844 278.066406 449.21875 278.066406 450.152344 C 278.066406 451.082031 278.820312 451.839844 279.753906 451.839844 C 280.683594 451.839844 281.441406 451.082031 281.441406 450.152344 " fill-opacity="1" fill-rule="nonzero"/><path fill="#ffffff" d="M 315.191406 450.152344 C 315.191406 449.21875 314.433594 448.464844 313.503906 448.464844 C 312.570312 448.464844 311.816406 449.21875 311.816406 450.152344 C 311.816406 451.082031 312.570312 451.839844 313.503906 451.839844 C 314.433594 451.839844 315.191406 451.082031 315.191406 450.152344 " fill-opacity="1" fill-rule="nonzero"/><path fill="#ffffff" d="M 348.941406 450.152344 C 348.941406 449.21875 348.183594 448.464844 347.253906 448.464844 C 346.320312 448.464844 345.566406 449.21875 345.566406 450.152344 C 345.566406 451.082031 346.320312 451.839844 347.253906 451.839844 C 348.183594 451.839844 348.941406 451.082031 348.941406 450.152344 " fill-opacity="1" fill-rule="nonzero"/><path fill="#ffffff" d="M 382.691406 450.152344 C 382.691406 449.21875 381.933594 448.464844 381.003906 448.464844 C 380.070312 448.464844 379.316406 449.21875 379.316406 450.152344 C 379.316406 451.082031 380.070312 451.839844 381.003906 451.839844 C 381.933594 451.839844 382.691406 451.082031 382.691406 450.152344 " fill-opacity="1" fill-rule="nonzero"/><path fill="#ffffff" d="M 416.441406 450.152344 C 416.441406 449.21875 415.683594 448.464844 414.753906 448.464844 C 413.820312 448.464844 413.066406 449.21875 413.066406 450.152344 C 413.066406 451.082031 413.820312 451.839844 414.753906 451.839844 C 415.683594 451.839844 416.441406 451.082031 416.441406 450.152344 " fill-opacity="1" fill-rule="nonzero"/><g clip-path="url(#cb2974d3ae)"><path fill="#ffffff" d="M 129.566406 433.277344 C 129.566406 432.34375 128.808594 431.589844 127.878906 431.589844 C 126.945312 431.589844 126.191406 432.34375 126.191406 433.277344 C 126.191406 434.207031 126.945312 434.964844 127.878906 434.964844 C 128.808594 434.964844 129.566406 434.207031 129.566406 433.277344 " fill-opacity="1" fill-rule="nonzero"/></g><g clip-path="url(#786b263e0e)"><path fill="#ffffff" d="M 163.316406 433.277344 C 163.316406 432.34375 162.558594 431.589844 161.628906 431.589844 C 160.695312 431.589844 159.941406 432.34375 159.941406 433.277344 C 159.941406 434.207031 160.695312 434.964844 161.628906 434.964844 C 162.558594 434.964844 163.316406 434.207031 163.316406 433.277344 " fill-opacity="1" fill-rule="nonzero"/></g><g clip-path="url(#23de94820c)"><path fill="#ffffff" d="M 197.066406 433.277344 C 197.066406 432.34375 196.308594 431.589844 195.378906 431.589844 C 194.445312 431.589844 193.691406 432.34375 193.691406 433.277344 C 193.691406 434.207031 194.445312 434.964844 195.378906 434.964844 C 196.308594 434.964844 197.066406 434.207031 197.066406 433.277344 " fill-opacity="1" fill-rule="nonzero"/></g><g clip-path="url(#5559867f43)"><path fill="#ffffff" d="M 230.816406 433.277344 C 230.816406 432.34375 230.058594 431.589844 229.128906 431.589844 C 228.195312 431.589844 227.441406 432.34375 227.441406 433.277344 C 227.441406 434.207031 228.195312 434.964844 229.128906 434.964844 C 230.058594 434.964844 230.816406 434.207031 230.816406 433.277344 " fill-opacity="1" fill-rule="nonzero"/></g><g clip-path="url(#193bf15b5c)"><path fill="#ffffff" d="M 264.566406 433.277344 C 264.566406 432.34375 263.808594 431.589844 262.878906 431.589844 C 261.945312 431.589844 261.191406 432.34375 261.191406 433.277344 C 261.191406 434.207031 261.945312 434.964844 262.878906 434.964844 C 263.808594 434.964844 264.566406 434.207031 264.566406 433.277344 " fill-opacity="1" fill-rule="nonzero"/></g><g clip-path="url(#26154c427c)"><path fill="#ffffff" d="M 298.316406 433.277344 C 298.316406 432.34375 297.558594 431.589844 296.628906 431.589844 C 295.695312 431.589844 294.941406 432.34375 294.941406 433.277344 C 294.941406 434.207031 295.695312 434.964844 296.628906 434.964844 C 297.558594 434.964844 298.316406 434.207031 298.316406 433.277344 " fill-opacity="1" fill-rule="nonzero"/></g><g clip-path="url(#9b26c9176b)"><path fill="#ffffff" d="M 332.066406 433.277344 C 332.066406 432.34375 331.308594 431.589844 330.378906 431.589844 C 329.445312 431.589844 328.691406 432.34375 328.691406 433.277344 C 328.691406 434.207031 329.445312 434.964844 330.378906 434.964844 C 331.308594 434.964844 332.066406 434.207031 332.066406 433.277344 " fill-opacity="1" fill-rule="nonzero"/></g><g clip-path="url(#da9ef94930)"><path fill="#ffffff" d="M 365.816406 433.277344 C 365.816406 432.34375 365.058594 431.589844 364.128906 431.589844 C 363.195312 431.589844 362.441406 432.34375 362.441406 433.277344 C 362.441406 434.207031 363.195312 434.964844 364.128906 434.964844 C 365.058594 434.964844 365.816406 434.207031 365.816406 433.277344 " fill-opacity="1" fill-rule="nonzero"/></g><g clip-path="url(#1d71535195)"><path fill="#ffffff" d="M 399.566406 433.277344 C 399.566406 432.34375 398.808594 431.589844 397.878906 431.589844 C 396.945312 431.589844 396.191406 432.34375 396.191406 433.277344 C 396.191406 434.207031 396.945312 434.964844 397.878906 434.964844 C 398.808594 434.964844 399.566406 434.207031 399.566406 433.277344 " fill-opacity="1" fill-rule="nonzero"/></g><g clip-path="url(#e196468241)"><path fill="#ffffff" d="M 433.316406 433.277344 C 433.316406 432.34375 432.558594 431.589844 431.628906 431.589844 C 430.695312 431.589844 429.941406 432.34375 429.941406 433.277344 C 429.941406 434.207031 430.695312 434.964844 431.628906 434.964844 C 432.558594 434.964844 433.316406 434.207031 433.316406 433.277344 " fill-opacity="1" fill-rule="nonzero"/></g><g clip-path="url(#518f458ecc)"><path stroke-linecap="butt" transform="matrix(0.75, 0, 0, 0.75, 283.499989, 283.500006)" fill="none" stroke-linejoin="miter" d="M 0.00001435 -0.00000765 L 324.000031 -0.00000765 L 324.000031 324.000009 L 0.00001435 324.000009 L 0.00001435 -0.00000765 " stroke="#000000" stroke-width="8" stroke-opacity="1" stroke-miterlimit="4"/></g></svg>