<svg xmlns="http://www.w3.org/2000/svg" xmlns:xlink="http://www.w3.org/1999/xlink" width="100%" zoomAndPan="magnify" viewBox="0 0 810 809.999993" height="100%" preserveAspectRatio="xMidYMid meet" version="1.0"><path fill="#000000" d="M 621.65625 496.316406 C 531.710938 530.339844 500.222656 602.703125 475.929688 688.707031 C 461.628906 736.023438 440.90625 780.6875 401.125 810 L 449.382812 810 C 496.246094 757.523438 502.710938 683.53125 526.894531 621.484375 C 557.640625 538.910156 625.339844 511.53125 704.558594 488.804688 C 741.992188 477.785156 779.929688 460.992188 810 435.210938 L 810 417.90625 C 803.558594 423.8125 796.742188 429.304688 789.566406 434.1875 C 739.710938 469.019531 677.722656 473.683594 621.65625 496.316406 Z M 645.40625 537.9375 C 576.589844 567.015625 539.21875 631.011719 520.027344 699.984375 C 507.972656 738.605469 496.617188 777.800781 473.066406 810 L 510.554688 810 C 538.140625 758.847656 544.3125 698.484375 567.824219 646.125 C 594.121094 583.863281 652.753906 550.203125 715.738281 532.824219 C 747.414062 523.046875 780.441406 513.179688 810 497.023438 L 810 479.921875 C 798.683594 486.230469 786.8125 491.640625 774.511719 496.136719 C 732.242188 511.601562 687.0625 518.640625 645.40625 537.9375 Z M 715.488281 362.957031 C 643.625 410.636719 541.941406 404.203125 478.089844 468.875 C 412.167969 529.210938 413.464844 633.105469 364.726562 701.058594 C 312.753906 775.570312 221.871094 772.558594 142.816406 808.621094 L 143.496094 810 L 259.378906 810 C 266.515625 807.605469 273.679688 805.128906 280.867188 802.394531 C 323.863281 786.625 365.648438 758.722656 390.980469 719.453125 C 452.289062 626.605469 428.222656 506.335938 543.65625 449.105469 C 601.335938 419.398438 669.007812 414.292969 723.449219 374.324219 C 775.5625 338.886719 793.757812 284.839844 810 229.4375 L 810 203.804688 C 803.578125 224.03125 797.644531 244.328125 790.132812 263.816406 C 775.417969 303.433594 751.15625 339.839844 715.488281 362.957031 Z M 606 452.738281 C 380.007812 525.117188 509.804688 749.175781 288.480469 809.390625 C 288.480469 809.390625 288.558594 809.640625 288.675781 810 L 372.699219 810 C 395.589844 794.335938 415.769531 774.699219 430.410156 750.96875 C 458.808594 706.679688 468.074219 651.773438 483.585938 604.417969 C 502.269531 539.972656 548.589844 492.082031 612.445312 471.011719 C 702.449219 441.71875 767.515625 424.964844 810 356.914062 L 810 335.441406 C 800.972656 351.617188 790.046875 366.53125 776.453125 379.351562 C 730.054688 424.621094 666.109375 433.25 606 452.738281 Z M 530.144531 810 L 562.761719 810 C 573.503906 780.949219 580.109375 751.550781 588.636719 723.894531 C 609.453125 647.378906 655.988281 599.214844 731.898438 575.699219 C 757.261719 566.953125 783.96875 559.816406 810 549.828125 L 810 532.222656 C 746.300781 555.128906 672.5625 562.949219 622.710938 613.496094 C 567.492188 664.121094 558.640625 745.582031 530.144531 810 Z M 789.425781 810 L 810 810 L 810 788.800781 C 802.640625 795.355469 795.746094 802.414062 789.425781 810 Z M 728.871094 810 L 757.613281 810 C 765.023438 797.222656 773.601562 785.246094 783.832031 774.621094 C 791.765625 766.339844 800.550781 758.925781 810 752.324219 L 810 726.785156 C 775.855469 745.964844 746.992188 775.308594 728.871094 810 Z M 644.445312 345.648438 C 599.863281 364.769531 551.027344 371.195312 505.785156 390.878906 C 458.589844 410.15625 418.539062 448.800781 397.605469 495.4375 C 357.6875 585.097656 357.9375 679.601562 254.242188 723.21875 C 187.140625 751.117188 106.035156 756.277344 50.382812 810 L 123.945312 810 C 169.019531 786.71875 222.472656 778.414062 269.226562 755.789062 C 444.382812 673.671875 353.019531 485.476562 514.242188 409.457031 C 612.007812 367.148438 703.273438 368.480469 753.25 254.609375 C 775.996094 202.191406 782.460938 142.191406 810 92.613281 L 810 85.203125 C 790.855469 114.804688 779.042969 149.25 769.078125 182.753906 C 749.554688 253.890625 716.265625 317.125 644.445312 345.648438 Z M 676.351562 810 L 704.164062 810 C 723.695312 756.703125 759.027344 718.566406 810 695.605469 L 810 673.921875 C 745.21875 698.019531 700.320312 743.886719 676.351562 810 Z M 580.410156 810 L 610.453125 810 C 625.339844 758.015625 636.8125 705.277344 675.222656 666.007812 C 710.800781 628.023438 760.925781 613.75 810 598.289062 L 810 579.953125 C 756.570312 595.125 699.972656 608.808594 658.9375 649.726562 C 613.71875 691.710938 598.671875 754.21875 580.410156 810 Z M 627.890625 810 L 656.40625 810 C 681.941406 717.964844 721.839844 675.191406 810 645.6875 L 810 625.941406 C 707.308594 654.980469 659.230469 704.722656 627.890625 810 Z M 201.445312 28.898438 C 228.589844 20.125 257.171875 12.113281 284.253906 0 L 236.085938 0 C 180.535156 16.539062 122.082031 28.285156 80.183594 70.972656 C 33.636719 113.332031 20.523438 177.445312 0 235.367188 L 0 310.648438 C 22.261719 272.992188 31.5 231.53125 42.359375 193.527344 C 64.875 103.703125 112.492188 54.664062 201.445312 28.898438 Z M 237.832031 586.730469 C 296.625 514.085938 284.429688 408.046875 349.660156 340.445312 C 396.90625 290.652344 467.980469 281.886719 529.371094 256.773438 C 598.515625 230.578125 642.152344 173.042969 660.355469 102.808594 C 670.640625 68.210938 678.464844 32.644531 693.445312 0 L 688.144531 0 C 672.367188 31.96875 663.300781 67.015625 652.105469 100.179688 C 632.457031 166.285156 590.042969 219.597656 523.527344 242.039062 C 480.875 258 435.152344 264.980469 392.941406 284.339844 C 349.070312 303.398438 311.964844 339.398438 291.394531 382.691406 C 253.308594 462.207031 251.011719 559.636719 164.644531 605.414062 C 113.691406 633.335938 53.328125 638.667969 0 663.007812 L 0 710.410156 C 32.921875 689.277344 74.082031 678.875 116.390625 664.847656 C 161.808594 650.539062 208.027344 625.695312 237.832031 586.730469 Z M 118.148438 712.09375 C 406.472656 636.664062 254.414062 429.304688 443.101562 336.527344 C 544.039062 294.011719 635.011719 294.160156 683.636719 175.699219 C 706.617188 117.363281 713.929688 50.890625 750.804688 0 L 746.867188 0 C 723.949219 29.9375 709.859375 66.464844 699.222656 102.394531 C 678.886719 175.515625 649.558594 240.285156 575.792969 271.621094 C 530.699219 291.894531 480.894531 298.070312 434.742188 317.882812 C 386.554688 337.316406 345.808594 376.855469 324.707031 424.453125 C 284.429688 517.109375 284.355469 610.828125 175.855469 653.359375 C 118.121094 675.144531 52.039062 684.105469 0 719.671875 L 0 777.574219 C 30.652344 742.566406 73.332031 725.707031 118.148438 712.09375 Z M 743.628906 113.390625 C 719.640625 189.179688 700.800781 264.230469 623.546875 302.367188 C 576.914062 326.136719 524.136719 332.300781 475.175781 352.445312 C 423.785156 371.882812 380.292969 414.03125 359.132812 464.871094 C 337.507812 512.734375 329.417969 565.625 304.335938 610.421875 C 235.359375 732.761719 89.550781 686.101562 0 787.882812 L 0 810 L 39.535156 810 C 63.453125 784.539062 94.964844 767.617188 129.714844 756.214844 C 211.191406 730.996094 289.8125 708.753906 331.792969 625.238281 C 379.488281 526.570312 364.953125 422.304688 483.128906 370.925781 C 530.527344 349.671875 584.253906 341.449219 630.539062 315.328125 C 678.550781 289.46875 711.710938 242.054688 727.582031 190.980469 C 747.808594 125.5 759.574219 56.5625 810 9.996094 L 810 7.652344 C 778.363281 34.253906 756.222656 74.417969 743.628906 113.390625 Z M 214.367188 532.359375 C 270.621094 438.378906 250.195312 325.644531 361.296875 269 C 417.242188 239.582031 482.453125 234.285156 536.730469 197.679688 C 609.199219 150.398438 620.347656 74.070312 643.707031 0 L 636.8125 0 C 618.855469 50.363281 608.882812 103.78125 574.511719 145.621094 C 535.003906 196.320312 473.339844 212.125 412.824219 228.316406 C 186.019531 289.488281 271.535156 459.46875 148.011719 556.5 C 103.910156 589.269531 52.65625 595.675781 0 612.871094 L 0 655.734375 C 33.84375 641.855469 72.179688 633.28125 110.234375 617.496094 C 152.042969 601.035156 190.445312 570.945312 214.367188 532.359375 Z M 143.425781 0 L 93.5625 0 C 50.644531 22.183594 22.039062 52.332031 0 97.726562 L 0 178.28125 C 25.699219 76.878906 59.449219 32.109375 143.425781 0 Z M 40.382812 0 L 6.578125 0 C 4.324219 2.222656 2.144531 4.515625 0 6.835938 L 0 46.269531 C 10.652344 28.632812 24.332031 12.992188 40.382812 0 Z M 188.296875 478.148438 C 231.273438 387.992188 222.382812 288.058594 320.996094 234.863281 C 372.222656 206.820312 431.019531 200.582031 483.574219 171.871094 C 554.203125 134.425781 577.90625 70.128906 596.96875 0 L 588.722656 0 C 579.851562 28.308594 571.105469 56.449219 556.957031 81.84375 C 502.894531 181.679688 401.472656 173.441406 311.265625 216.480469 C 255.125 243.421875 217.851562 298.644531 200.226562 356.839844 C 159.402344 496.433594 130.691406 531.417969 0 566.53125 L 0 606.867188 C 76.832031 583.621094 149.019531 558.328125 188.296875 478.148438 Z M 93.976562 184.230469 C 123.496094 107.269531 188.917969 77.984375 263.761719 56.9375 C 303.882812 45.078125 345.222656 28.183594 377.132812 0 L 355.429688 0 C 326.332031 19.785156 292.972656 30.5 258.699219 39.886719 C 176.375 59.773438 106 90.929688 70.265625 173.867188 C 45.207031 229.8125 36.554688 295.070312 0 343.289062 L 0 392.3125 C 18.515625 374.707031 33.851562 353.765625 44.726562 331.230469 C 68.167969 283.839844 74.511719 231.59375 93.976562 184.230469 Z M 101.347656 313.480469 C 139.484375 161.800781 170.476562 129.714844 320.78125 86.167969 C 369.265625 71.386719 416.554688 42.675781 445.289062 0 L 430.445312 0 C 421.945312 10.613281 412.445312 20.378906 401.753906 28.890625 C 352.71875 68.285156 288.980469 74.078125 230.886719 95.761719 C 202.683594 106.300781 175 121.628906 152.550781 143.339844 C 130.097656 165.011719 113.640625 192.402344 102.042969 220.515625 C 73.355469 293.730469 64.4375 368.878906 0 414.257812 L 0 455.957031 C 51.988281 425.976562 86.652344 369.695312 101.347656 313.480469 Z M 131.355469 369.015625 C 162.46875 267.320312 170.960938 188.21875 283.238281 146.8125 C 381.175781 113.878906 458.722656 98.066406 500.816406 0 L 489.589844 0 C 479.6875 19.8125 467.28125 38.117188 451.464844 53.289062 C 404.265625 99.925781 337.777344 108.019531 276.566406 128.449219 C 70.621094 196.1875 167.132812 398.328125 0 470.453125 L 0 510.089844 C 63.324219 485.226562 110.964844 434.398438 131.355469 369.015625 Z M 0 559.203125 L 0 519.945312 C 113.253906 485.875 132.125 424.671875 167.210938 311.539062 C 179.28125 276.367188 197.9375 242.027344 224.894531 215.679688 C 278.089844 162.457031 358.003906 156.070312 423.851562 130.207031 C 455.917969 117.066406 485.070312 96.765625 505.859375 68.800781 C 521.410156 48.351562 532.117188 24.652344 540.886719 0 L 550.300781 0 C 530.496094 63.765625 495.625 115.882812 429.929688 144.222656 C 380.296875 166.675781 327.363281 174.140625 280.945312 200.960938 C 194.285156 249.472656 192.878906 339.855469 160.433594 423.75 C 131.503906 497.792969 71.679688 537.140625 0 559.203125 " fill-opacity="0.1" fill-rule="nonzero"/></svg>